<?xml version="1.0" encoding="iso-8859-1"?>
<!-- Generator: Adobe Illustrator 19.1.0, SVG Export Plug-In . SVG Version: 6.00 Build 0)  -->
<svg version="1.1" id="Layer_1" xmlns="http://www.w3.org/2000/svg" xmlns:xlink="http://www.w3.org/1999/xlink" x="0px" y="0px"
	 viewBox="0 0 81.667 79.418" style="enable-background:new 0 0 81.667 79.418;" xml:space="preserve">
<path style="fill:#35495E;" d="M6.572,67.983c0,0,0.218-0.205,0.643-0.545c0.429-0.332,1.046-0.855,1.876-1.418
	c0.414-0.287,0.871-0.606,1.37-0.952c0.502-0.34,1.062-0.665,1.654-1.032c0.598-0.358,1.234-0.738,1.905-1.139
	c0.687-0.366,1.409-0.751,2.163-1.153c1.524-0.77,3.204-1.545,5.022-2.285c0.913-0.355,1.855-0.719,2.831-1.066
	c0.981-0.329,1.989-0.656,3.029-0.968c2.087-0.587,4.288-1.118,6.616-1.466c1.168-0.187,2.358-0.301,3.594-0.375
	c0.609-0.047,1.246-0.056,1.874-0.075l1.785,0.059l1.649,0.062c0.556,0.024,1.193,0.086,1.782,0.148
	c1.202,0.123,2.403,0.244,3.517,0.431c2.267,0.361,4.465,0.824,6.552,1.404c1.044,0.283,2.068,0.567,3.049,0.912
	c0.985,0.329,1.95,0.636,2.864,1.016c1.845,0.697,3.546,1.46,5.087,2.219c1.546,0.743,2.907,1.558,4.109,2.26
	c1.208,0.69,2.203,1.422,3.029,1.987c0.826,0.568,1.435,1.1,1.86,1.43c0.418,0.349,0.633,0.553,0.633,0.553l-0.226,0.498
	c0,0-1-0.437-2.8-1.104c-1.797-0.673-4.398-1.548-7.552-2.477c-3.153-0.931-6.877-1.874-10.919-2.599
	c-2.02-0.363-4.119-0.679-6.26-0.895c-1.07-0.138-2.148-0.202-3.23-0.273c-1.076-0.093-2.176-0.118-3.278-0.133
	c-2.186-0.089-4.339,0.025-6.478,0.267c-2.132,0.247-4.222,0.609-6.233,1.018c-4.023,0.823-7.731,1.839-10.884,2.783
	c-3.149,0.961-5.769,1.784-7.585,2.414c-1.819,0.621-2.845,1.006-2.845,1.006L6.572,67.983z"/>
<path style="fill:#35495E;" d="M69.645,74.254c0,0-0.205-0.218-0.545-0.643c-0.332-0.429-0.855-1.046-1.418-1.876
	c-0.287-0.414-0.606-0.871-0.952-1.37c-0.34-0.502-0.665-1.062-1.032-1.654c-0.358-0.598-0.738-1.234-1.139-1.905
	c-0.366-0.687-0.751-1.409-1.153-2.163c-0.77-1.524-1.545-3.204-2.285-5.022c-0.355-0.913-0.719-1.855-1.066-2.831
	c-0.329-0.981-0.656-1.989-0.968-3.029c-0.587-2.087-1.118-4.288-1.466-6.616c-0.187-1.168-0.301-2.358-0.375-3.594
	c-0.047-0.609-0.056-1.246-0.075-1.874l0.059-1.785l0.062-1.649c0.024-0.556,0.086-1.193,0.148-1.782
	c0.123-1.202,0.244-2.403,0.431-3.517c0.361-2.267,0.824-4.465,1.404-6.552c0.283-1.044,0.567-2.068,0.912-3.049
	c0.329-0.985,0.636-1.95,1.016-2.864c0.697-1.845,1.46-3.546,2.219-5.087c0.743-1.546,1.558-2.907,2.26-4.109
	c0.69-1.208,1.422-2.203,1.987-3.029c0.568-0.826,1.1-1.435,1.43-1.86c0.349-0.418,0.553-0.633,0.553-0.633l0.498,0.226
	c0,0-0.437,1-1.104,2.8c-0.673,1.797-1.548,4.398-2.477,7.552c-0.931,3.153-1.874,6.877-2.599,10.919
	c-0.363,2.02-0.679,4.119-0.895,6.26c-0.138,1.07-0.202,2.148-0.273,3.23c-0.093,1.076-0.118,2.176-0.133,3.278
	c-0.089,2.186,0.025,4.339,0.267,6.478c0.247,2.132,0.609,4.222,1.018,6.233c0.823,4.023,1.839,7.731,2.783,10.884
	c0.961,3.149,1.784,5.769,2.414,7.585c0.621,1.819,1.006,2.845,1.006,2.845L69.645,74.254z"/>
<path style="fill:#2C3E50;" d="M12.348,5.078c0,0,0.205,0.218,0.545,0.643c0.332,0.429,0.855,1.046,1.418,1.876
	c0.287,0.414,0.606,0.871,0.952,1.37c0.34,0.502,0.665,1.062,1.032,1.654c0.358,0.598,0.738,1.234,1.139,1.905
	c0.366,0.687,0.751,1.409,1.153,2.163c0.77,1.524,1.545,3.204,2.285,5.022c0.355,0.913,0.719,1.855,1.066,2.831
	c0.329,0.981,0.656,1.989,0.968,3.029c0.587,2.087,1.118,4.288,1.466,6.616c0.187,1.168,0.301,2.358,0.375,3.594
	c0.047,0.609,0.056,1.246,0.075,1.874l-0.059,1.785l-0.062,1.649c-0.024,0.556-0.086,1.193-0.148,1.782
	c-0.123,1.202-0.244,2.403-0.431,3.517c-0.361,2.267-0.824,4.465-1.404,6.552c-0.283,1.044-0.567,2.068-0.912,3.049
	c-0.329,0.985-0.636,1.95-1.016,2.864c-0.697,1.845-1.46,3.546-2.219,5.087c-0.743,1.546-1.558,2.907-2.26,4.109
	c-0.69,1.208-1.422,2.203-1.987,3.029c-0.568,0.826-1.1,1.435-1.43,1.86c-0.349,0.418-0.553,0.633-0.553,0.633l-0.498-0.226
	c0,0,0.437-1,1.104-2.8c0.673-1.797,1.548-4.398,2.477-7.552c0.931-3.153,1.874-6.877,2.599-10.919
	c0.363-2.02,0.679-4.119,0.895-6.26c0.138-1.07,0.202-2.148,0.273-3.23c0.093-1.076,0.118-2.176,0.133-3.278
	c0.089-2.186-0.025-4.339-0.267-6.478c-0.247-2.132-0.609-4.222-1.018-6.233c-0.823-4.023-1.839-7.731-2.783-10.884
	c-0.961-3.149-1.784-5.769-2.414-7.585c-0.621-1.819-1.006-2.845-1.006-2.845L12.348,5.078z"/>
<path style="fill:#35495E;" d="M74.634,11.414c0,0-0.218,0.205-0.643,0.545c-0.429,0.332-1.046,0.855-1.876,1.418
	c-0.414,0.287-0.871,0.606-1.37,0.952c-0.502,0.34-1.062,0.665-1.654,1.032c-0.598,0.358-1.234,0.738-1.905,1.139
	c-0.687,0.366-1.409,0.751-2.163,1.153c-1.524,0.77-3.204,1.545-5.022,2.285c-0.913,0.355-1.855,0.719-2.831,1.066
	c-0.981,0.329-1.989,0.656-3.029,0.968c-2.087,0.587-4.288,1.118-6.616,1.466c-1.168,0.187-2.358,0.301-3.594,0.375
	c-0.609,0.047-1.246,0.056-1.874,0.075l-1.785-0.059l-1.649-0.062c-0.556-0.024-1.193-0.086-1.782-0.148
	c-1.202-0.123-2.403-0.244-3.517-0.431c-2.267-0.361-4.465-0.824-6.552-1.404c-1.044-0.283-2.068-0.567-3.049-0.912
	c-0.985-0.329-1.95-0.636-2.864-1.016c-1.845-0.697-3.546-1.46-5.087-2.219c-1.546-0.743-2.907-1.558-4.109-2.26
	c-1.208-0.69-2.203-1.422-3.029-1.987c-0.826-0.568-1.435-1.1-1.86-1.43c-0.418-0.349-0.633-0.553-0.633-0.553l0.226-0.498
	c0,0,1,0.437,2.8,1.104c1.797,0.673,4.398,1.548,7.552,2.477c3.153,0.931,6.877,1.874,10.919,2.599
	c2.02,0.363,4.119,0.679,6.26,0.895c1.07,0.138,2.148,0.202,3.23,0.273c1.076,0.093,2.176,0.118,3.278,0.133
	c2.186,0.089,4.339-0.025,6.478-0.267c2.132-0.247,4.222-0.609,6.233-1.018c4.023-0.823,7.731-1.839,10.884-2.783
	c3.149-0.961,5.769-1.784,7.585-2.414c1.819-0.621,2.845-1.006,2.845-1.006L74.634,11.414z"/>
<circle style="fill:#2C3E50;" cx="73.634" cy="6.763" r="2.079"/>
<circle style="fill:#2C3E50;" cx="73.634" cy="72.569" r="2.079"/>
<circle style="fill:#2C3E50;" cx="8.765" cy="71.569" r="2.079"/>
<circle style="fill:#2C3E50;" cx="9.511" cy="8.018" r="2.079"/>
</svg>
