<?xml version="1.0" encoding="iso-8859-1"?>
<!-- Generator: Adobe Illustrator 19.1.0, SVG Export Plug-In . SVG Version: 6.00 Build 0)  -->
<svg version="1.1" id="Layer_1" xmlns="http://www.w3.org/2000/svg" xmlns:xlink="http://www.w3.org/1999/xlink" x="0px" y="0px"
	 viewBox="0 0 70 70" style="enable-background:new 0 0 70 70;" xml:space="preserve">
<g>
	<circle style="fill:#2C3E50;" cx="35.238" cy="11.463" r="4.751"/>
	<circle style="fill:#2C3E50;" cx="35.238" cy="20.696" r="2.146"/>
	<circle style="fill:#2C3E50;" cx="22.521" cy="22.63" r="4.75"/>
	<circle style="fill:#2C3E50;" cx="48.509" cy="22.63" r="4.75"/>
	<circle style="fill:#2C3E50;" cx="35.238" cy="34.44" r="4.751"/>
	<circle style="fill:#2C3E50;" cx="43.255" cy="28.782" r="1.793"/>
	<circle style="fill:#2C3E50;" cx="27.272" cy="28.782" r="1.793"/>
	<circle style="fill:#2C3E50;" cx="35.238" cy="58.537" r="4.751"/>
	<circle style="fill:#2C3E50;" cx="35.238" cy="49.304" r="2.146"/>
	<circle style="fill:#2C3E50;" cx="48.509" cy="47.37" r="4.75"/>
	<circle style="fill:#2C3E50;" cx="27.272" cy="41.077" r="1.793"/>
	<circle style="fill:#2C3E50;" cx="43.255" cy="41.218" r="1.793"/>
	<circle style="fill:#2C3E50;" cx="58.859" cy="34.44" r="4.749"/>
	<path style="fill:#2C3E50;" d="M50.268,36.586c-1.184,0-2.146-0.96-2.146-2.147c0-1.185,0.961-2.148,2.146-2.148
		c1.188,0,2.148,0.963,2.148,2.148C52.416,35.626,51.456,36.586,50.268,36.586z"/>
	<circle style="fill:#2C3E50;" cx="11.141" cy="34.44" r="4.749"/>
	<circle style="fill:#2C3E50;" cx="19.731" cy="34.439" r="2.147"/>
	<circle style="fill:#2C3E50;" cx="21.877" cy="47.37" r="4.75"/>
</g>
</svg>
