<?xml version="1.0" encoding="iso-8859-1"?>
<!-- Generator: Adobe Illustrator 19.1.0, SVG Export Plug-In . SVG Version: 6.00 Build 0)  -->
<svg version="1.1" id="Layer_1" xmlns="http://www.w3.org/2000/svg" xmlns:xlink="http://www.w3.org/1999/xlink" x="0px" y="0px"
	 viewBox="0 0 70 70" style="enable-background:new 0 0 70 70;" xml:space="preserve">
<g>
	<circle style="fill:#2C3E50;" cx="17.472" cy="24.046" r="4.605"/>
	<circle style="fill:#2C3E50;" cx="35.775" cy="24.046" r="3.166"/>
	<circle style="fill:#2C3E50;" cx="56.081" cy="24.046" r="4.605"/>
	<path style="opacity:0.6;fill:#2C3E50;" d="M5.767,30.46c0,0,15.494,2.176,20.67,2.171c5.054-0.004,20.181-2.171,20.181-2.171
		v9.211c0,0-15.126-2.167-20.181-2.171c-5.177-0.004-20.67,2.171-20.67,2.171V30.46z"/>
	<circle style="fill:#2C3E50;" cx="5.767" cy="35.065" r="4.605"/>
	<circle style="fill:#2C3E50;" cx="24.07" cy="35.065" r="3.166"/>
	<path style="opacity:0.6;fill:#2C3E50;" d="M46.618,30.46c0,0,13.862,2.807,17.368,1.439c1.277-0.498,1.337,6.504,0,6.332
		c-3.506-0.449-17.368,1.439-17.368,1.439V30.46z"/>
	<circle style="fill:#2C3E50;" cx="64.672" cy="35.065" r="3.166"/>
	<circle style="fill:#2C3E50;" cx="15.745" cy="45.954" r="4.605"/>
	<circle style="fill:#2C3E50;" cx="34.048" cy="45.954" r="3.166"/>
	<circle style="fill:#2C3E50;" cx="55.058" cy="45.954" r="4.605"/>
	<path style="opacity:0.6;fill:#2C3E50;" d="M15.96,19.44c0,0,15.494,2.176,20.67,2.171c5.054-0.004,20.181-2.171,20.181-2.171
		v9.211c0,0-15.126-2.167-20.181-2.171c-5.177-0.004-20.67,2.171-20.67,2.171V19.44z"/>
	<path style="opacity:0.6;fill:#2C3E50;" d="M14.492,41.349c0,0,15.494,2.176,20.67,2.171c5.054-0.004,20.181-2.171,20.181-2.171
		v9.211c0,0-15.126-2.167-20.181-2.171c-5.177-0.004-20.67,2.171-20.67,2.171V41.349z"/>
	<circle style="fill:#2C3E50;" cx="47.676" cy="35.065" r="4.605"/>
</g>
</svg>
