<?xml version="1.0" encoding="utf-8"?>
<!-- Generator: Adobe Illustrator 19.1.0, SVG Export Plug-In . SVG Version: 6.00 Build 0)  -->
<svg version="1.1" id="Layer_1" xmlns="http://www.w3.org/2000/svg" xmlns:xlink="http://www.w3.org/1999/xlink" x="0px" y="0px"
	 viewBox="-501 227 617.3 142.2" style="enable-background:new -501 227 617.3 142.2;" xml:space="preserve">
<style type="text/css">
	.st0{fill:#FFFFFF;stroke:#2C3E50;stroke-width:1.4185;stroke-miterlimit:10;}
	.st1{fill:#ECF0F1;}
	.st2{fill:#FFFFFF;stroke:#2C3E50;stroke-width:2;stroke-miterlimit:10;}
	.st3{fill:#2C3E50;}
	.st4{fill:none;stroke:#2C3E50;stroke-width:2;stroke-miterlimit:10;}
	.st5{fill:#26B99A;stroke:#2C3E50;stroke-width:2;stroke-miterlimit:10;}
	.st6{fill:#35495E;}
	.st7{fill:#3E5770;}
	.st8{fill:#95A5A5;}
	.st9{fill:#FFFFFF;}
	.st10{fill:#26B99A;}
	.st11{fill:#BDC3C7;}
	.st12{fill:#7F8C8D;}
	.st13{fill:#14A085;}
	.st14{opacity:0.4;fill:#FFFFFF;enable-background:new    ;}
	.st15{fill:#24AE5F;}
	.st16{fill:#4FBA6F;}
	.st17{fill:#019347;}
	.st18{fill:#FFFFFF;stroke:#2C3E50;stroke-width:1.3137;stroke-miterlimit:10;}
	.st19{fill:none;stroke:#2C3E50;stroke-width:1.4185;stroke-miterlimit:10;}
	.st20{fill:none;stroke:#26B99A;stroke-width:0.4799;stroke-miterlimit:10;}
	.st21{fill:#BCC2C6;}
	.st22{fill:none;stroke:#BCC2C6;stroke-width:0.8727;stroke-miterlimit:10;}
	.st23{fill:none;stroke:#26B99A;stroke-width:0.8727;stroke-miterlimit:10;}
	.st24{fill:none;stroke:#26B99A;stroke-width:0.558;stroke-miterlimit:10;}
	.st25{fill:#301C2F;stroke:#FFFFFF;stroke-width:0.346;stroke-miterlimit:10;}
	.st26{fill:none;stroke:#26B99A;stroke-width:0.389;stroke-miterlimit:10;}
	.st27{opacity:0.2;fill:#FFFFFF;enable-background:new    ;}
	.st28{fill:#7F8C8C;}
	.st29{fill:#301C2F;}
	.st30{fill:none;}
	.st31{font-family:'Montserrat-Regular';}
	.st32{font-size:4px;}
</style>
<path class="st0" d="M-77.2,367.1h-91.6c-1.6,0-2.9-1.3-2.9-2.9v-56.6c0-1.6,1.3-2.9,2.9-2.9h91.6c1.6,0,2.9,1.3,2.9,2.9v56.6
	C-74.2,365.8-75.6,367.1-77.2,367.1z"/>
<rect x="-166.8" y="308.9" class="st1" width="87.2" height="53.5"/>
<rect x="-3.3" y="345.2" class="st2" width="30.3" height="21.6"/>
<rect x="-2.7" y="345.2" class="st3" width="29.2" height="8.4"/>
<path class="st2" d="M86.1,341.2c0,4-3.3,7.3-7.3,7.3H-55c-4,0-7.3-3.3-7.3-7.3v-77.9c0-4,3.3-7.3,7.3-7.3H78.8c4,0,7.3,3.3,7.3,7.3
	L86.1,341.2L86.1,341.2z"/>
<rect x="-55.7" y="262.2" class="st1" width="133.5" height="65.1"/>
<line class="st4" x1="-62.3" y1="332.1" x2="86.1" y2="332.1"/>
<rect x="-9.4" y="364.2" class="st2" width="42.7" height="4.9"/>
<g>
	<g>
		<path class="st3" d="M13.6,339.8c0-0.8,0.6-1.2,0.7-1.2c-0.4-0.5-0.9-0.6-1.1-0.6c-0.5,0-1,0.3-1.2,0.3c-0.2,0-0.6-0.3-1-0.3
			c-0.5,0-1,0.3-1.3,0.8c-0.6,1-0.1,2.4,0.4,3.2c0.3,0.4,0.6,0.8,1,0.8c0.4,0,0.5-0.3,1-0.3c0.5,0,0.6,0.3,1,0.2
			c0.4,0,0.7-0.4,1-0.8c0.3-0.4,0.4-0.9,0.4-0.9C14.4,341.1,13.6,340.8,13.6,339.8"/>
	</g>
	<path class="st3" d="M12.8,337.5c0.2-0.3,0.4-0.6,0.3-1c-0.3,0-0.7,0.2-0.9,0.5c-0.2,0.2-0.4,0.6-0.3,1
		C12.2,338,12.6,337.8,12.8,337.5"/>
</g>
<rect x="63.4" y="340.3" transform="matrix(-0.9388 0.3445 -0.3445 -0.9388 260.3697 652.6309)" class="st5" width="17.5" height="18.3"/>
<line class="st4" x1="65.3" y1="346" x2="72.2" y2="343.5"/>
<line class="st4" x1="66.3" y1="348.5" x2="71.1" y2="346.7"/>
<path class="st6" d="M-396,365.1c0,1.6-1,2.9-2.3,2.9H-492c-1.2,0-2.3-1.3-2.3-2.9v-50.7c0-1.6,1-2.9,2.3-2.9h93.8
	c1.2,0,2.3,1.3,2.3,2.9L-396,365.1L-396,365.1z"/>
<path class="st7" d="M-442.7,361.8c0,1.1-0.9,1.9-1.9,1.9h-42.6c-1.1,0-1.9-0.9-1.9-1.9v-28.4c0-1.1,0.9-1.9,1.9-1.9h42.6
	c1.1,0,1.9,0.9,1.9,1.9V361.8z"/>
<path class="st6" d="M-398.8,290h-47.5c-1.6,0-2.9,1.3-2.9,2.9v53.6v18.6v2.9h2.9h18.6h28.9c1.6,0,2.9-1.3,2.9-2.9v-72.2
	C-396,291.3-397.3,290-398.8,290z"/>
<rect x="-408.6" y="367.9" class="st8" width="4.8" height="1.2"/>
<rect x="-444.8" y="295.1" class="st9" width="45" height="27.9"/>
<rect x="-449.2" y="327.5" class="st10" width="21.3" height="1.5"/>
<g>
	<rect x="-489.2" y="312.8" class="st10" width="14.3" height="7"/>
</g>
<rect x="-444.8" y="295.1" class="st10" width="45" height="2.7"/>
<rect x="-444.8" y="297.7" class="st3" width="45" height="2.9"/>
<rect x="-442.7" y="305.1" class="st1" width="21.8" height="13.7"/>
<rect x="-417.9" y="304.8" class="st11" width="15.6" height="1.3"/>
<rect x="-417.9" y="307.2" class="st11" width="6.3" height="1.3"/>
<rect x="-417.9" y="309.6" class="st11" width="9.4" height="1.3"/>
<rect x="-441.4" y="311.2" class="st10" width="1.4" height="7.6"/>
<rect x="-438.5" y="315" class="st12" width="1.4" height="3.8"/>
<rect x="-435.5" y="307.8" class="st3" width="1.4" height="11"/>
<rect x="-432.5" y="312.4" class="st13" width="1.4" height="6.4"/>
<rect x="-429.8" y="312.4" class="st13" width="1.4" height="6.4"/>
<rect x="-427.3" y="307.8" class="st3" width="1.4" height="11"/>
<rect x="-424" y="311.2" class="st13" width="1.4" height="7.6"/>
<g>
	<path class="st10" d="M-379.7,299.9c-2.6,1.5-5.6,2.7-8.5,4c-0.4-1-1-1.4-1-2.3c0.1-2.3,6.1-4.7,7.7-4.2
		C-380.3,297.8-380.3,299.2-379.7,299.9z"/>
	<path class="st6" d="M-366.5,331.2c-2.1,0.9-4.1,2-6.3,2.9c-0.8-0.4-1-1.5-1.3-2.3c-2.3,3.2-5.1,5.8-4.8,11.7
		c0.1,2.4,1.4,7.1,3.7,7.7c1.6,0.4,3.8-0.8,5.4-1.5c3.4-1.6,5.4-2.5,9.2-4.2c2.4-1.1,6.2-3.8,6,0.6c-4.2,3.1-10.3,4.7-15.2,7.7
		c-0.2,0.8-0.2,1.5,0,2.3c-1.6-3.2-9.2-3.1-10.8,0c-7.2-7.5-5.3-19.1,0.4-25.7c2.3-2.7,6.6-4.3,5.8-9.4c-0.5-3-3.5-5.5-7.7-4.8
		c-1.8-3.9-3.6-7.6-5.8-11.5c2.5-1.6,5.6-2.6,8.3-4C-375.1,310.6-370.7,320.8-366.5,331.2z"/>
	<path class="st6" d="M-361.7,331.1c1.8,2.5-3.3,3.8-5.4,4.8c-2.6,1.2-4.7,2.9-6.7,1.9c-1.1-2.5,2.2-3.4,4.8-4.6
		C-366.2,331.9-364,330.4-361.7,331.1z"/>
	<path class="st6" d="M-355.1,343.5C-355.2,343.5-355,343.7-355.1,343.5L-355.1,343.5z"/>
	<path class="st6" d="M-365.9,353.7C-366,353.6-365.8,353.8-365.9,353.7L-365.9,353.7z"/>
	<path class="st6" d="M-367.6,364.3c2.7,0,6.1,0,9.8,0c6.1,0,12.2-1.3,11.3,5c-14.7,0-29.5,0-44.2,0c-0.7-4.9,2.9-5.4,7.5-5
		c2.2-2.5,2.4-8.7,6.3-9.4C-370.2,353.6-369.8,360.3-367.6,364.3z"/>
	<path class="st6" d="M-368.8,357C-368.9,356.9-368.6,357.1-368.8,357L-368.8,357z"/>
	<path class="st6" d="M-366,343.6c-0.6,0.3-1.2,0.2-1.4-0.3l-2.2-4.7c-0.2-0.4,0.1-1,0.7-1.3l0,0c0.6-0.3,1.2-0.2,1.4,0.3l2.2,4.7
		C-365.1,342.7-365.5,343.3-366,343.6L-366,343.6z"/>
	<path class="st6" d="M-363.9,339.6c-0.6,0.3-1.2,0.3-1.3,0.1l-1.3-2.7c-0.1-0.2,0.3-0.7,0.8-1l0,0c0.6-0.3,1.2-0.3,1.3-0.1l1.3,2.7
		C-363,338.9-363.3,339.3-363.9,339.6L-363.9,339.6z"/>
	<circle class="st10" cx="-381.2" cy="322.4" r="5.4"/>
	<path class="st6" d="M-353.9,353.3l-1-2.2c-0.5-1.1-1.7-1.6-2.6-1.1l-8.7,4c-0.8,0.4-1.2,1.3-1,2.2l3.1-1.4
		c0.5-0.2,1.1,0.1,1.4,0.7l0.6,1.3c0.3,0.6,0.1,1.3-0.4,1.6l-2.9,1.3c0.6,0.4,1.3,0.6,2,0.3l8.7-4
		C-353.8,355.6-353.4,354.4-353.9,353.3z"/>
	<path class="st6" d="M-362.6,356.8c0.2,0.5-0.1,1-0.7,1.3l-5.3,2.5c-0.6,0.3-1.2,0.1-1.4-0.3l-0.4-0.9c-0.2-0.4,0.1-1,0.7-1.3
		l5.3-2.5c0.6-0.3,1.2-0.1,1.4,0.3L-362.6,356.8z"/>
</g>
<g>
	<path class="st11" d="M-16.7,320.7h-1.4c0-14.5-15.3-37.9-24.8-37.9v-1.4C-32.7,281.4-16.7,305.2-16.7,320.7z"/>
</g>
<g>
	<path class="st10" d="M3.3,300.3c-14.1,0-25.5-13.5-25.5-30h2.1c0,15.4,10.5,27.9,23.5,27.9L3.3,300.3L3.3,300.3z"/>
</g>
<g>
	<path class="st3" d="M-43.1,308.2l-0.3-0.6c21.4-11.4,23.1-31.4,23.1-37.3h0.7C-19.7,276.3-21.4,296.7-43.1,308.2z"/>
</g>
<g>
	<path class="st3" d="M-42.4,307.9l-0.3-0.6c20.3-11.8,26.4-11.8,46.4-11.8h0.9v0.7H3.6C-16.3,296.2-22.3,296.2-42.4,307.9z"/>
</g>
<g>
	<path class="st11" d="M-16.6,319h-1.4c0-6.7,3.4-16,6.7-22.6c1.6-3.2,7.1-13.8,11.6-13.8v1.4C-4.6,283.9-16.6,306.9-16.6,319z"/>
</g>
<g>
	<path class="st3" d="M-2.7,311.9c-5.7-10.2-22.7-20.5-44.1-20.5V290c21.9,0,39.3,10.7,45.3,21.2L-2.7,311.9z"/>
</g>
<g>
	<path class="st3" d="M-32.3,317.6h-1.4c0-11.8,22.7-35.2,34.1-35.2v1.4C-10.2,283.8-32.3,306.5-32.3,317.6z"/>
</g>
<g>
	<path class="st10" d="M-2.9,313.4h-1.4c0-3.1-6.2-8.5-15.5-13.5c-9.6-5.1-19.8-8.4-26.1-8.4v-1.4c7.9,0,19,4.4,26.7,8.6
		C-15.4,300.8-2.9,307.8-2.9,313.4z"/>
</g>
<g>
	<path class="st3" d="M-14.7,271.7c-3.9-1.1-8.1-1.1-12-0.2l-0.5-2c4.2-1,8.8-0.9,13,0.3L-14.7,271.7z"/>
</g>
<g>
	<path class="st3" d="M-38.5,277.9l-1.5-1.5c2.7-2.6,5.8-4.6,9.3-6l0.7,1.9C-33.1,273.6-36,275.5-38.5,277.9z"/>
</g>
<g>
	<path class="st11" d="M-43.4,284.8l-1.9-0.9c1-2,2.2-3.9,3.6-5.6l1.6,1.3C-41.4,281.2-42.5,283-43.4,284.8z"/>
</g>
<g>
	<path class="st10" d="M-45.7,295.3h-2.1c0-3.4,0.6-6.8,1.9-9.9l1.9,0.8C-45.1,289.1-45.7,292.2-45.7,295.3z"/>
</g>
<g>
	<path class="st3" d="M-42.6,311c-2.9-4-4.7-8.7-5.1-13.6l2.1-0.2c0.4,4.5,2,8.9,4.7,12.5L-42.6,311z"/>
</g>
<g>
	<path class="st3" d="M-27.5,321.1c-5-1.2-9.5-3.8-13.1-7.6l1.5-1.4c3.3,3.5,7.4,5.9,12.1,7L-27.5,321.1z"/>
</g>
<g>
	<path class="st11" d="M-21.2,322.2c-1.2,0-2.4-0.1-3.5-0.2l0.4-2.7c4.9,0.6,10-0.3,14.4-2.6l1.3,2.4
		C-12.5,321.2-16.9,322.2-21.2,322.2z"/>
</g>
<g>
	<path class="st3" d="M-5.3,316.6l-1.2-1.7c2.7-2,5.1-4.7,6.7-7.7l1.8,1C0.2,311.5-2.4,314.4-5.3,316.6z"/>
</g>
<g>
	<path class="st10" d="M3.6,304.8L1.7,304c1.1-2.8,1.6-5.7,1.6-8.7c0-1-0.1-1.9-0.2-2.9l2.1-0.2c0.1,1,0.2,2.1,0.2,3.1
		C5.3,298.6,4.8,301.7,3.6,304.8z"/>
</g>
<g>
	<path class="st3" d="M1.8,286.9c-0.9-2.5-2.2-4.7-3.8-6.8l1.6-1.3c1.8,2.2,3.2,4.7,4.1,7.4L1.8,286.9z"/>
</g>
<g>
	<path class="st3" d="M-4.6,277.4c-2.4-2.2-5.1-3.9-8.1-5l0.7-1.9c3.3,1.2,6.2,3,8.8,5.4L-4.6,277.4z"/>
</g>
<polygon class="st14" points="-55.7,262.2 -55.7,320 64.5,262.2 "/>
<path class="st13" d="M59.7,272.7c0,0.4-0.3,0.7-0.7,0.7h-4c-0.4,0-0.7-0.3-0.7-0.7v-0.2c0-0.4,0.3-0.7,0.7-0.7h4
	c0.4,0,0.7,0.3,0.7,0.7V272.7z"/>
<path class="st10" d="M59.6,276c0,0.4-0.3,0.7-0.7,0.7h-4c-0.4,0-0.7-0.3-0.7-0.7v-0.2c0-0.4,0.3-0.7,0.7-0.7h4
	c0.4,0,0.7,0.3,0.7,0.7V276z"/>
<path class="st10" d="M64.2,279.2c0,0.4-0.3,0.7-0.7,0.7h-4c-0.4,0-0.7-0.3-0.7-0.7V279c0-0.4,0.3-0.7,0.7-0.7h4
	c0.4,0,0.7,0.3,0.7,0.7V279.2z"/>
<circle class="st15" cx="63.4" cy="279.1" r="0.8"/>
<circle class="st3" cx="59.6" cy="279.1" r="0.8"/>
<path class="st16" d="M51.5,279.2c0,0.4-0.3,0.7-0.7,0.7h-4c-0.4,0-0.7-0.3-0.7-0.7V279c0-0.4,0.3-0.7,0.7-0.7h4
	c0.4,0,0.7,0.3,0.7,0.7V279.2z"/>
<path class="st6" d="M57.1,279.2c0,0.4-0.3,0.7-0.7,0.7h-4c-0.4,0-0.7-0.3-0.7-0.7V279c0-0.4,0.3-0.7,0.7-0.7h4
	c0.4,0,0.7,0.3,0.7,0.7V279.2z"/>
<circle class="st10" cx="56.4" cy="279.1" r="0.8"/>
<circle class="st3" cx="48.1" cy="275.9" r="0.8"/>
<circle class="st15" cx="55.1" cy="275.9" r="0.8"/>
<path class="st15" d="M42.7,272.7c0,0.4,0.3,0.7,0.7,0.7h4c0.4,0,0.7-0.3,0.7-0.7v-0.2c0-0.4-0.3-0.7-0.7-0.7h-4
	c-0.4,0-0.7,0.3-0.7,0.7V272.7z"/>
<path class="st10" d="M46.7,272.7c0,0.4,0.3,0.7,0.7,0.7h4c0.4,0,0.7-0.3,0.7-0.7v-0.2c0-0.4-0.3-0.7-0.7-0.7h-4
	c-0.4,0-0.7,0.3-0.7,0.7V272.7z"/>
<circle class="st17" cx="41.9" cy="272.6" r="0.8"/>
<circle class="st3" cx="55.2" cy="272.6" r="0.8"/>
<circle class="st15" cx="61.6" cy="272.6" r="0.8"/>
<path class="st10" d="M44.8,282.3c0-0.4,0.3-0.7,0.7-0.7h4c0.4,0,0.7,0.3,0.7,0.7v0.2c0,0.4-0.3,0.7-0.7,0.7h-4
	c-0.4,0-0.7-0.3-0.7-0.7V282.3z"/>
<path class="st13" d="M34,285.6c0-0.4,0.3-0.7,0.7-0.7h4c0.4,0,0.7,0.3,0.7,0.7v0.2c0,0.4-0.3,0.7-0.7,0.7h-4
	c-0.4,0-0.7-0.3-0.7-0.7V285.6z"/>
<path class="st10" d="M34.1,282.3c0-0.4,0.3-0.7,0.7-0.7h4c0.4,0,0.7,0.3,0.7,0.7v0.2c0,0.4-0.3,0.7-0.7,0.7h-4
	c-0.4,0-0.7-0.3-0.7-0.7V282.3z"/>
<path class="st10" d="M29.6,279.1c0-0.4,0.3-0.7,0.7-0.7h4c0.4,0,0.7,0.3,0.7,0.7v0.2c0,0.4-0.3,0.7-0.7,0.7h-4
	c-0.4,0-0.7-0.3-0.7-0.7V279.1z"/>
<circle class="st15" cx="30.4" cy="279.2" r="0.8"/>
<circle class="st3" cx="34.2" cy="279.2" r="0.8"/>
<path class="st16" d="M40.3,279.1c0-0.4,0.3-0.7,0.7-0.7h4c0.4,0,0.7,0.3,0.7,0.7v0.2c0,0.4-0.3,0.7-0.7,0.7h-4
	c-0.4,0-0.7-0.3-0.7-0.7V279.1z"/>
<path class="st6" d="M36.7,279.1c0-0.4,0.3-0.7,0.7-0.7h4c0.4,0,0.7,0.3,0.7,0.7v0.2c0,0.4-0.3,0.7-0.7,0.7h-4
	c-0.4,0-0.7-0.3-0.7-0.7V279.1z"/>
<circle class="st10" cx="41.4" cy="279.2" r="0.8"/>
<circle class="st3" cx="45.7" cy="282.3" r="0.8"/>
<circle class="st15" cx="38.7" cy="282.3" r="0.8"/>
<path class="st15" d="M51.1,285.6c0-0.4-0.3-0.7-0.7-0.7h-4c-0.4,0-0.7,0.3-0.7,0.7v0.2c0,0.4,0.3,0.7,0.7,0.7h4
	c0.4,0,0.7-0.3,0.7-0.7V285.6z"/>
<path class="st10" d="M47.1,285.6c0-0.4-0.3-0.7-0.7-0.7h-4c-0.4,0-0.7,0.3-0.7,0.7v0.2c0,0.4,0.3,0.7,0.7,0.7h4
	c0.4,0,0.7-0.3,0.7-0.7V285.6z"/>
<circle class="st17" cx="51.9" cy="285.7" r="0.8"/>
<circle class="st3" cx="38.6" cy="285.7" r="0.8"/>
<circle class="st15" cx="32.2" cy="285.7" r="0.8"/>
<circle class="st3" cx="35" cy="272.6" r="0.8"/>
<path class="st6" d="M38.5,276c0,0.4-0.3,0.7-0.7,0.7h-4c-0.4,0-0.7-0.3-0.7-0.7v-0.2c0-0.4,0.3-0.7,0.7-0.7h4
	c0.4,0,0.7,0.3,0.7,0.7V276z"/>
<path class="st13" d="M56.8,290.5c0,0.4-0.3,0.7-0.7,0.7h-4c-0.4,0-0.7-0.3-0.7-0.7v-0.2c0-0.4,0.3-0.7,0.7-0.7h4
	c0.4,0,0.7,0.3,0.7,0.7V290.5z"/>
<path class="st10" d="M56.7,293.8c0,0.4-0.3,0.7-0.7,0.7h-4c-0.4,0-0.7-0.3-0.7-0.7v-0.2c0-0.4,0.3-0.7,0.7-0.7h4
	c0.4,0,0.7,0.3,0.7,0.7V293.8z"/>
<path class="st10" d="M61.2,297c0,0.4-0.3,0.7-0.7,0.7h-4c-0.4,0-0.7-0.3-0.7-0.7v-0.2c0-0.4,0.3-0.7,0.7-0.7h4
	c0.4,0,0.7,0.3,0.7,0.7V297z"/>
<circle class="st15" cx="60.4" cy="296.9" r="0.8"/>
<circle class="st3" cx="56.6" cy="296.9" r="0.8"/>
<path class="st16" d="M48.5,297c0,0.4-0.3,0.7-0.7,0.7h-4c-0.4,0-0.7-0.3-0.7-0.7v-0.2c0-0.4,0.3-0.7,0.7-0.7h4
	c0.4,0,0.7,0.3,0.7,0.7V297z"/>
<path class="st6" d="M54.1,297c0,0.4-0.3,0.7-0.7,0.7h-4c-0.4,0-0.7-0.3-0.7-0.7v-0.2c0-0.4,0.3-0.7,0.7-0.7h4
	c0.4,0,0.7,0.3,0.7,0.7V297z"/>
<circle class="st10" cx="53.4" cy="296.9" r="0.8"/>
<circle class="st3" cx="45.2" cy="293.8" r="0.8"/>
<circle class="st15" cx="52.1" cy="293.8" r="0.8"/>
<path class="st15" d="M39.7,290.5c0,0.4,0.3,0.7,0.7,0.7h4c0.4,0,0.7-0.3,0.7-0.7v-0.2c0-0.4-0.3-0.7-0.7-0.7h-4
	c-0.4,0-0.7,0.3-0.7,0.7V290.5z"/>
<path class="st10" d="M43.7,290.5c0,0.4,0.3,0.7,0.7,0.7h4c0.4,0,0.7-0.3,0.7-0.7v-0.2c0-0.4-0.3-0.7-0.7-0.7h-4
	c-0.4,0-0.7,0.3-0.7,0.7V290.5z"/>
<circle class="st17" cx="39" cy="290.4" r="0.8"/>
<circle class="st3" cx="52.2" cy="290.4" r="0.8"/>
<circle class="st15" cx="58.6" cy="290.4" r="0.8"/>
<path class="st10" d="M41.9,300.1c0-0.4,0.3-0.7,0.7-0.7h4c0.4,0,0.7,0.3,0.7,0.7v0.2c0,0.4-0.3,0.7-0.7,0.7h-4
	c-0.4,0-0.7-0.3-0.7-0.7V300.1z"/>
<path class="st13" d="M31.1,303.4c0-0.4,0.3-0.7,0.7-0.7h4c0.4,0,0.7,0.3,0.7,0.7v0.2c0,0.4-0.3,0.7-0.7,0.7h-4
	c-0.4,0-0.7-0.3-0.7-0.7V303.4z"/>
<path class="st10" d="M31.2,300.1c0-0.4,0.3-0.7,0.7-0.7h4c0.4,0,0.7,0.3,0.7,0.7v0.2c0,0.4-0.3,0.7-0.7,0.7h-4
	c-0.4,0-0.7-0.3-0.7-0.7V300.1z"/>
<path class="st10" d="M26.7,296.9c0-0.4,0.3-0.7,0.7-0.7h4c0.4,0,0.7,0.3,0.7,0.7v0.2c0,0.4-0.3,0.7-0.7,0.7h-4
	c-0.4,0-0.7-0.3-0.7-0.7V296.9z"/>
<circle class="st15" cx="27.4" cy="297" r="0.8"/>
<circle class="st3" cx="31.3" cy="297" r="0.8"/>
<path class="st16" d="M37.3,296.9c0-0.4,0.3-0.7,0.7-0.7h4c0.4,0,0.7,0.3,0.7,0.7v0.2c0,0.4-0.3,0.7-0.7,0.7h-4
	c-0.4,0-0.7-0.3-0.7-0.7V296.9z"/>
<path class="st6" d="M33.8,296.9c0-0.4,0.3-0.7,0.7-0.7h4c0.4,0,0.7,0.3,0.7,0.7v0.2c0,0.4-0.3,0.7-0.7,0.7h-4
	c-0.4,0-0.7-0.3-0.7-0.7V296.9z"/>
<circle class="st10" cx="38.5" cy="297" r="0.8"/>
<circle class="st3" cx="42.7" cy="300.2" r="0.8"/>
<circle class="st15" cx="35.8" cy="300.2" r="0.8"/>
<path class="st15" d="M48.1,303.4c0-0.4-0.3-0.7-0.7-0.7h-4c-0.4,0-0.7,0.3-0.7,0.7v0.2c0,0.4,0.3,0.7,0.7,0.7h4
	c0.4,0,0.7-0.3,0.7-0.7V303.4z"/>
<path class="st10" d="M44.1,303.4c0-0.4-0.3-0.7-0.7-0.7h-4c-0.4,0-0.7,0.3-0.7,0.7v0.2c0,0.4,0.3,0.7,0.7,0.7h4
	c0.4,0,0.7-0.3,0.7-0.7V303.4z"/>
<circle class="st17" cx="48.9" cy="303.5" r="0.8"/>
<circle class="st3" cx="35.7" cy="303.5" r="0.8"/>
<circle class="st15" cx="29.2" cy="303.5" r="0.8"/>
<circle class="st3" cx="32" cy="290.4" r="0.8"/>
<path class="st6" d="M35.5,293.9c0,0.4-0.3,0.7-0.7,0.7h-4c-0.4,0-0.7-0.3-0.7-0.7v-0.2c0-0.4,0.3-0.7,0.7-0.7h4
	c0.4,0,0.7,0.3,0.7,0.7V293.9z"/>
<path class="st13" d="M64.3,307.2c0,0.4-0.3,0.7-0.7,0.7h-4c-0.4,0-0.7-0.3-0.7-0.7v-0.2c0-0.4,0.3-0.7,0.7-0.7h4
	c0.4,0,0.7,0.3,0.7,0.7V307.2z"/>
<path class="st10" d="M64.2,310.6c0,0.4-0.3,0.7-0.7,0.7h-4c-0.4,0-0.7-0.3-0.7-0.7v-0.2c0-0.4,0.3-0.7,0.7-0.7h4
	c0.4,0,0.7,0.3,0.7,0.7V310.6z"/>
<path class="st10" d="M68.7,313.7c0,0.4-0.3,0.7-0.7,0.7h-4c-0.4,0-0.7-0.3-0.7-0.7v-0.2c0-0.4,0.3-0.7,0.7-0.7h4
	c0.4,0,0.7,0.3,0.7,0.7V313.7z"/>
<circle class="st15" cx="67.9" cy="313.7" r="0.8"/>
<circle class="st3" cx="64.1" cy="313.7" r="0.8"/>
<path class="st16" d="M56,313.7c0,0.4-0.3,0.7-0.7,0.7h-4c-0.4,0-0.7-0.3-0.7-0.7v-0.2c0-0.4,0.3-0.7,0.7-0.7h4
	c0.4,0,0.7,0.3,0.7,0.7V313.7z"/>
<path class="st6" d="M61.6,313.7c0,0.4-0.3,0.7-0.7,0.7h-4c-0.4,0-0.7-0.3-0.7-0.7v-0.2c0-0.4,0.3-0.7,0.7-0.7h4
	c0.4,0,0.7,0.3,0.7,0.7V313.7z"/>
<circle class="st10" cx="60.9" cy="313.7" r="0.8"/>
<circle class="st3" cx="52.7" cy="310.5" r="0.8"/>
<circle class="st15" cx="59.6" cy="310.5" r="0.8"/>
<path class="st15" d="M47.2,307.2c0,0.4,0.3,0.7,0.7,0.7h4c0.4,0,0.7-0.3,0.7-0.7v-0.2c0-0.4-0.3-0.7-0.7-0.7h-4
	c-0.4,0-0.7,0.3-0.7,0.7V307.2z"/>
<path class="st10" d="M51.2,307.2c0,0.4,0.3,0.7,0.7,0.7h4c0.4,0,0.7-0.3,0.7-0.7v-0.2c0-0.4-0.3-0.7-0.7-0.7h-4
	c-0.4,0-0.7,0.3-0.7,0.7V307.2z"/>
<circle class="st17" cx="46.5" cy="307.1" r="0.8"/>
<circle class="st3" cx="59.7" cy="307.1" r="0.8"/>
<circle class="st15" cx="66.1" cy="307.1" r="0.8"/>
<path class="st10" d="M49.4,316.8c0-0.4,0.3-0.7,0.7-0.7h4c0.4,0,0.7,0.3,0.7,0.7v0.2c0,0.4-0.3,0.7-0.7,0.7h-4
	c-0.4,0-0.7-0.3-0.7-0.7V316.8z"/>
<path class="st13" d="M38.6,320.2c0-0.4,0.3-0.7,0.7-0.7h4c0.4,0,0.7,0.3,0.7,0.7v0.2c0,0.4-0.3,0.7-0.7,0.7h-4
	c-0.4,0-0.7-0.3-0.7-0.7V320.2z"/>
<path class="st10" d="M38.7,316.8c0-0.4,0.3-0.7,0.7-0.7h4c0.4,0,0.7,0.3,0.7,0.7v0.2c0,0.4-0.3,0.7-0.7,0.7h-4
	c-0.4,0-0.7-0.3-0.7-0.7V316.8z"/>
<path class="st10" d="M34.2,313.6c0-0.4,0.3-0.7,0.7-0.7h4c0.4,0,0.7,0.3,0.7,0.7v0.2c0,0.4-0.3,0.7-0.7,0.7h-4
	c-0.4,0-0.7-0.3-0.7-0.7V313.6z"/>
<circle class="st15" cx="34.9" cy="313.7" r="0.8"/>
<circle class="st3" cx="38.8" cy="313.7" r="0.8"/>
<path class="st16" d="M44.8,313.6c0-0.4,0.3-0.7,0.7-0.7h4c0.4,0,0.7,0.3,0.7,0.7v0.2c0,0.4-0.3,0.7-0.7,0.7h-4
	c-0.4,0-0.7-0.3-0.7-0.7V313.6z"/>
<path class="st6" d="M41.3,313.6c0-0.4,0.3-0.7,0.7-0.7h4c0.4,0,0.7,0.3,0.7,0.7v0.2c0,0.4-0.3,0.7-0.7,0.7h-4
	c-0.4,0-0.7-0.3-0.7-0.7V313.6z"/>
<circle class="st10" cx="46" cy="313.7" r="0.8"/>
<circle class="st3" cx="50.2" cy="316.9" r="0.8"/>
<circle class="st15" cx="43.3" cy="316.9" r="0.8"/>
<path class="st15" d="M55.6,320.2c0-0.4-0.3-0.7-0.7-0.7h-4c-0.4,0-0.7,0.3-0.7,0.7v0.2c0,0.4,0.3,0.7,0.7,0.7h4
	c0.4,0,0.7-0.3,0.7-0.7V320.2z"/>
<path class="st10" d="M51.6,320.2c0-0.4-0.3-0.7-0.7-0.7h-4c-0.4,0-0.7,0.3-0.7,0.7v0.2c0,0.4,0.3,0.7,0.7,0.7h4
	c0.4,0,0.7-0.3,0.7-0.7V320.2z"/>
<circle class="st17" cx="56.4" cy="320.2" r="0.8"/>
<circle class="st3" cx="43.2" cy="320.2" r="0.8"/>
<circle class="st15" cx="36.7" cy="320.2" r="0.8"/>
<circle class="st3" cx="39.5" cy="307.1" r="0.8"/>
<path class="st6" d="M43,310.6c0,0.4-0.3,0.7-0.7,0.7h-4c-0.4,0-0.7-0.3-0.7-0.7v-0.2c0-0.4,0.3-0.7,0.7-0.7h4
	c0.4,0,0.7,0.3,0.7,0.7V310.6z"/>
<rect x="-486.7" y="367.9" class="st8" width="4.8" height="1.2"/>
<path class="st18" d="M-62.5,368.2h-119.8c-0.6,0-1-0.4-1-1v-4.9h121.8v4.9C-61.5,367.7-61.9,368.2-62.5,368.2z"/>
<line class="st19" x1="-130.5" y1="363.8" x2="-113.5" y2="363.8"/>
<g>
	<path class="st20" d="M-112.3,324.4l3-4.5c0,0,1.7-1.3,2.3-2.6c0.6-1.2,3.9-2,3.9-2l4.6-0.7l2.6,1.2l1.3,0.8"/>
	<g>
		<rect x="-112.3" y="322.6" class="st3" width="1.4" height="1.8"/>
		<rect x="-110" y="321.8" class="st3" width="1.4" height="2.6"/>
		<rect x="-107.7" y="319.2" class="st3" width="1.4" height="5.3"/>
		<rect x="-105.4" y="316.7" class="st3" width="1.4" height="7.8"/>
		<rect x="-103.1" y="315.9" class="st3" width="1.4" height="8.5"/>
		<rect x="-100.8" y="315.3" class="st3" width="1.4" height="9.1"/>
		<rect x="-98.5" y="315.3" class="st3" width="1.4" height="9.1"/>
		<rect x="-96.2" y="317.3" class="st3" width="1.4" height="7.1"/>
	</g>
	<path class="st21" d="M-113,336.8l2.6-1.3l1.8-1.8c0,0,0.3-0.8,1.6-0.8s2.2,0,2.6,0c0.4,0,3.4-1.2,3.7-1.3s0-0.8,0.8-0.8
		c0.8,0,2-0.7,2.6-0.7c0.7,0,2.6,0,2.6,0l0.8-1v7.7H-113z"/>
	<path class="st10" d="M-113,336.8l2.6-0.7l1.8-1c0,0,0.3-0.5,1.6-0.5s2.2,0,2.6,0c0.4,0,3.4-0.6,3.7-0.7c0.3-0.1,0-0.4,0.8-0.4
		c0.8,0,2-0.4,2.6-0.4c0.7,0,2.6,0,2.6,0l0.8-0.6v4.2H-113z"/>
	<path class="st3" d="M-113,336.8l2.6-0.3l1.8-0.5c0,0,0.3-0.2,1.6-0.2c1.3,0,2.2,0,2.6,0c0.4,0,3.4-0.3,3.7-0.3
		c0.3,0,0-0.2,0.8-0.2c0.8,0,2-0.2,2.6-0.2c0.7,0,2.6,0,2.6,0l0.8-0.3v2.1H-113z"/>
	<path class="st3" d="M-108.8,345.1c-2.3,0-4.1,1.8-4.1,4.1c0,2.3,1.8,4.1,4.1,4.1s4.1-1.8,4.1-4.1h-4.1V345.1z"/>
	<path class="st10" d="M-108.4,344.6v4.1h4.1C-104.4,346.5-106.2,344.6-108.4,344.6z"/>
	<g>
		<path class="st3" d="M-97.8,353.4c-2.4,0-4.3-1.9-4.3-4.3s1.9-4.3,4.3-4.3v0.9c-1.9,0-3.4,1.5-3.4,3.4s1.5,3.4,3.4,3.4V353.4z"/>
	</g>
	<path class="st22" d="M-94.5,351.2c-0.7,1.1-1.9,1.8-3.3,1.8"/>
	<path class="st23" d="M-97.8,345.3c2.1,0,3.9,1.7,3.9,3.9c0,0.8-0.2,1.5-0.6,2"/>
</g>
<g>
	<path class="st3" d="M-159.3,324.1c-0.7,0-1.2-0.5-1.2-1.2s0.5-1.2,1.2-1.2s1.2,0.5,1.2,1.2S-158.6,324.1-159.3,324.1z
		 M-159.3,322.5c-0.3,0-0.5,0.2-0.5,0.5s0.2,0.5,0.5,0.5s0.5-0.2,0.5-0.5S-159,322.5-159.3,322.5z"/>
</g>
<g>
	<rect x="-159.7" y="323.8" class="st3" width="0.7" height="9.4"/>
</g>
<g>
	<rect x="-159.7" y="340.7" class="st3" width="0.7" height="7.7"/>
</g>
<g>
	<circle class="st3" cx="-159.3" cy="348.5" r="0.8"/>
	<path class="st3" d="M-159.3,349.7c-0.7,0-1.2-0.5-1.2-1.2s0.5-1.2,1.2-1.2s1.2,0.5,1.2,1.2S-158.6,349.7-159.3,349.7z M-159.3,348
		c-0.3,0-0.5,0.2-0.5,0.5s0.2,0.5,0.5,0.5s0.5-0.2,0.5-0.5S-159,348-159.3,348z"/>
</g>
<line class="st24" x1="-159.3" y1="333.2" x2="-159.3" y2="340.7"/>
<circle class="st25" cx="-159.3" cy="340.7" r="0.8"/>
<circle class="st25" cx="-159.3" cy="332.6" r="0.8"/>
<g>
	<path class="st3" d="M-150.8,324.1c-0.7,0-1.2-0.5-1.2-1.2s0.5-1.2,1.2-1.2s1.2,0.5,1.2,1.2S-150.1,324.1-150.8,324.1z
		 M-150.8,322.5c-0.3,0-0.5,0.2-0.5,0.5s0.2,0.5,0.5,0.5s0.5-0.2,0.5-0.5S-150.5,322.5-150.8,322.5z"/>
</g>
<g>
	<rect x="-151.2" y="323.8" class="st3" width="0.7" height="9.4"/>
</g>
<g>
	<rect x="-151.2" y="336.9" class="st3" width="0.9" height="11.6"/>
</g>
<g>
	<circle class="st3" cx="-150.8" cy="348.5" r="0.8"/>
	<path class="st3" d="M-150.8,349.7c-0.7,0-1.2-0.5-1.2-1.2s0.5-1.2,1.2-1.2s1.2,0.5,1.2,1.2S-150.1,349.7-150.8,349.7z M-150.8,348
		c-0.3,0-0.5,0.2-0.5,0.5s0.2,0.5,0.5,0.5s0.5-0.2,0.5-0.5S-150.5,348-150.8,348z"/>
</g>
<line class="st26" x1="-150.8" y1="333.2" x2="-150.8" y2="336.9"/>
<circle class="st25" cx="-150.8" cy="340.7" r="0.8"/>
<circle class="st25" cx="-150.8" cy="332.6" r="0.8"/>
<circle class="st25" cx="-150.8" cy="336.9" r="0.8"/>
<g>
	<path class="st3" d="M-142.9,324.1c-0.7,0-1.2-0.5-1.2-1.2s0.5-1.2,1.2-1.2s1.2,0.5,1.2,1.2S-142.3,324.1-142.9,324.1z
		 M-142.9,322.5c-0.3,0-0.5,0.2-0.5,0.5s0.2,0.5,0.5,0.5s0.5-0.2,0.5-0.5S-142.7,322.5-142.9,322.5z"/>
</g>
<g>
	<rect x="-143.3" y="323.8" class="st3" width="0.7" height="9.4"/>
</g>
<g>
	<rect x="-143.3" y="340.7" class="st3" width="0.7" height="7.7"/>
</g>
<g>
	<circle class="st3" cx="-142.9" cy="348.5" r="0.8"/>
	<path class="st3" d="M-142.9,349.7c-0.7,0-1.2-0.5-1.2-1.2s0.5-1.2,1.2-1.2s1.2,0.5,1.2,1.2S-142.3,349.7-142.9,349.7z M-142.9,348
		c-0.3,0-0.5,0.2-0.5,0.5s0.2,0.5,0.5,0.5s0.5-0.2,0.5-0.5S-142.7,348-142.9,348z"/>
</g>
<line class="st24" x1="-142.9" y1="333.2" x2="-142.9" y2="340.7"/>
<circle class="st25" cx="-142.9" cy="340.7" r="0.8"/>
<circle class="st25" cx="-142.9" cy="332.6" r="0.8"/>
<g>
	<g>
		<path class="st3" d="M-134.4,324.1c-0.7,0-1.2-0.5-1.2-1.2s0.5-1.2,1.2-1.2s1.2,0.5,1.2,1.2S-133.8,324.1-134.4,324.1z
			 M-134.4,322.5c-0.3,0-0.5,0.2-0.5,0.5s0.2,0.5,0.5,0.5s0.5-0.2,0.5-0.5S-134.2,322.5-134.4,322.5z"/>
	</g>
	<g>
		<rect x="-134.8" y="323.8" class="st3" width="0.7" height="24.7"/>
	</g>
	<g>
		<circle class="st3" cx="-134.4" cy="348.5" r="0.8"/>
		<path class="st3" d="M-134.4,349.7c-0.7,0-1.2-0.5-1.2-1.2s0.5-1.2,1.2-1.2s1.2,0.5,1.2,1.2S-133.8,349.7-134.4,349.7z
			 M-134.4,348c-0.3,0-0.5,0.2-0.5,0.5s0.2,0.5,0.5,0.5s0.5-0.2,0.5-0.5S-134.2,348-134.4,348z"/>
	</g>
</g>
<polygon class="st27" points="-166.8,309.1 -166.8,356.6 -88.3,309.1 "/>
<rect x="-269.5" y="344.2" class="st2" width="30.3" height="21.6"/>
<rect x="-268.9" y="344.2" class="st3" width="29.2" height="8.4"/>
<path class="st2" d="M-180.1,340.1c0,4-3.3,7.3-7.3,7.3h-133.8c-4,0-7.3-3.3-7.3-7.3v-77.9c0-4,3.3-7.3,7.3-7.3h133.8
	c4,0,7.3,3.3,7.3,7.3L-180.1,340.1L-180.1,340.1z"/>
<g>
	<rect x="-321.4" y="261.7" class="st1" width="132.5" height="64.1"/>
	<path class="st3" d="M-189.4,262.2v63.1h-131.5v-63.1H-189.4 M-188.4,261.2h-133.5v65.1h133.5V261.2L-188.4,261.2z"/>
</g>
<line class="st4" x1="-328.5" y1="331" x2="-180.1" y2="331"/>
<rect x="-275.6" y="363.2" class="st2" width="42.7" height="4.9"/>
<g>
	<g>
		<path class="st3" d="M-252.6,338.8c0-0.8,0.6-1.2,0.7-1.2c-0.4-0.5-0.9-0.6-1.1-0.6c-0.5-0.1-1,0.3-1.2,0.3c-0.2,0-0.6-0.3-1-0.3
			c-0.5,0-1,0.3-1.3,0.8c-0.6,1-0.1,2.4,0.4,3.2c0.3,0.4,0.6,0.8,1,0.8c0.4,0,0.5-0.3,1-0.3c0.5,0,0.6,0.3,1,0.2
			c0.4,0,0.7-0.4,1-0.8c0.3-0.4,0.4-0.9,0.4-0.9C-251.7,340-252.6,339.7-252.6,338.8"/>
	</g>
	<path class="st3" d="M-253.4,336.4c0.2-0.3,0.4-0.6,0.3-1c-0.3,0-0.7,0.2-0.9,0.5c-0.2,0.2-0.4,0.6-0.3,1
		C-253.9,336.9-253.6,336.7-253.4,336.4"/>
</g>
<g>
	<path class="st9" d="M-298.7,322.8h-15c-0.5,0-1-0.5-1-1v-15c0-0.5,0.5-1,1-1h15c0.6,0,1,0.5,1,1v15
		C-297.7,322.3-298.2,322.8-298.7,322.8z"/>
	<path class="st9" d="M-298.7,303.9h-15c-0.5,0-1-0.5-1-1v-15c0-0.6,0.5-1,1-1h15c0.5,0,1,0.4,1,1v15
		C-297.7,303.5-298.2,303.9-298.7,303.9z"/>
	<path class="st9" d="M-298.7,285.3h-15c-0.5,0-1-0.4-1-1v-15c0-0.6,0.5-1,1-1h15c0.5,0,1,0.4,1,1v15
		C-297.7,284.8-298.2,285.3-298.7,285.3z"/>
	<g>
		<rect x="-288.6" y="272.8" class="st28" width="0.9" height="47.1"/>
	</g>
	<g>
		<rect x="-272" y="272.8" class="st28" width="0.9" height="47.1"/>
	</g>
	<g>
		<rect x="-255.4" y="272.8" class="st28" width="0.9" height="47.1"/>
	</g>
	<g>
		<rect x="-238.8" y="272.8" class="st28" width="0.9" height="47.1"/>
	</g>
	<g>
		<rect x="-222.2" y="272.8" class="st28" width="0.9" height="47.1"/>
	</g>
	<circle class="st10" cx="-303.1" cy="274.8" r="0.5"/>
	<circle class="st10" cx="-304.8" cy="274.7" r="0.5"/>
	<circle class="st29" cx="-308.7" cy="277.9" r="0.5"/>
	<circle class="st29" cx="-310.5" cy="276.8" r="0.5"/>
	<circle class="st29" cx="-310.5" cy="278.7" r="0.5"/>
	<circle class="st29" cx="-308.7" cy="280" r="0.5"/>
	<circle class="st29" cx="-307" cy="279.2" r="0.5"/>
	<circle class="st29" cx="-310.5" cy="280.7" r="0.5"/>
	<circle class="st10" cx="-303.1" cy="273.3" r="0.5"/>
	<circle class="st10" cx="-301.4" cy="274.2" r="0.5"/>
	<circle class="st29" cx="-309.2" cy="281.6" r="0.5"/>
	<circle class="st29" cx="-312.8" cy="279.4" r="0.5"/>
	<circle class="st10" cx="-304.8" cy="272.2" r="0.5"/>
	<circle class="st10" cx="-307.9" cy="301.4" r="0.5"/>
	<circle class="st10" cx="-310.7" cy="298.5" r="0.5"/>
	<circle class="st29" cx="-303.4" cy="296" r="0.5"/>
	<circle class="st29" cx="-308.4" cy="293.6" r="0.5"/>
	<circle class="st29" cx="-312.6" cy="297.9" r="0.5"/>
	<circle class="st29" cx="-312.1" cy="294.9" r="0.5"/>
	<circle class="st29" cx="-308.4" cy="299.5" r="0.5"/>
	<circle class="st29" cx="-307.1" cy="295.5" r="0.5"/>
	<circle class="st10" cx="-304.5" cy="293.6" r="0.5"/>
	<circle class="st10" cx="-302.9" cy="294.5" r="0.5"/>
	<circle class="st29" cx="-310.7" cy="301.9" r="0.5"/>
	<circle class="st29" cx="-313.1" cy="301.4" r="0.5"/>
	<circle class="st10" cx="-306.2" cy="292.5" r="0.5"/>
	<circle class="st10" cx="-307.3" cy="317.3" r="0.5"/>
	<circle class="st10" cx="-304.5" cy="314.4" r="0.5"/>
	<circle class="st29" cx="-311.7" cy="312" r="0.5"/>
	<circle class="st29" cx="-306.7" cy="309.6" r="0.5"/>
	<circle class="st29" cx="-302.5" cy="313.9" r="0.5"/>
	<circle class="st29" cx="-303.1" cy="310.8" r="0.5"/>
	<circle class="st29" cx="-306.7" cy="315.5" r="0.5"/>
	<circle class="st29" cx="-308" cy="311.4" r="0.5"/>
	<circle class="st10" cx="-310.6" cy="309.6" r="0.5"/>
	<circle class="st10" cx="-312.3" cy="310.5" r="0.5"/>
	<circle class="st29" cx="-302" cy="317.3" r="0.5"/>
	<circle class="st10" cx="-308.9" cy="308.4" r="0.5"/>
	<g>
		<polygon class="st3" points="-288,313.7 -288.4,313 -271.8,304.2 -255.1,298.1 -238.3,294.7 -221.6,302.3 -221.9,303.1 
			-238.4,295.5 -254.9,298.9 -271.5,304.9 		"/>
	</g>
	<g>
		<polygon class="st3" points="-288.1,315.1 -288.3,314.5 -271.7,307.3 -255.1,302.4 -238.3,299.6 -238.2,299.6 -221.6,305.8 
			-221.9,306.5 -238.4,300.3 -254.9,303.1 -271.5,308 		"/>
	</g>
	<g>
		<polygon class="st3" points="-288.1,315.9 -288.3,315.3 -271.7,309.5 -255.1,305.4 -238.3,303.1 -238.3,303.2 -221.7,308.2 
			-221.9,308.9 -238.4,303.8 -254.9,306.1 -271.5,310.1 		"/>
	</g>
	<g>
		<polygon class="st10" points="-288.1,296.1 -288.3,295.5 -271.7,288.2 -255.1,283.2 -238.3,280.4 -238.2,280.4 -221.6,286.7 
			-221.9,287.3 -238.4,281.1 -254.9,283.9 -271.5,288.9 		"/>
	</g>
	<g>
		<polygon class="st10" points="-288.1,321 -288.3,320.4 -271.7,314.5 -255.1,310.4 -238.3,308.2 -221.7,313.3 -221.9,313.9 
			-238.4,308.8 -254.9,311.1 -271.5,315.1 		"/>
	</g>
	<g>
		<polygon class="st10" points="-288.1,307.9 -288.3,307.3 -271.7,302.5 -255,299.1 -238.4,297.2 -238.3,297.3 -221.7,301.5 
			-221.8,302 -238.4,297.8 -254.9,299.7 -271.5,303 		"/>
	</g>
	<g>
		<polygon class="st10" points="-288.1,295.2 -288.3,294.5 -271.7,287.2 -255.1,282.2 -238.3,279.4 -238.2,279.4 -221.6,285.7 
			-221.9,286.4 -238.4,280.1 -254.9,282.9 -271.5,287.9 		"/>
	</g>
	<g>
		<polygon class="st10" points="-288.1,297 -288.3,296.5 -271.7,291.6 -255,288.3 -238.4,286.4 -238.3,286.4 -221.7,290.6 
			-221.8,291.2 -238.4,287 -254.9,288.9 -271.5,292.2 		"/>
	</g>
</g>
<polygon class="st14" points="-320.3,262.2 -320.3,318.9 -205.1,262.2 "/>
<rect x="-213.8" y="262.2" class="st9" width="24.3" height="62.9"/>
<path class="st10" d="M-201.1,277.4c0,2-1.7,2.1-3.6,2.7c-3.2,1.1-2.4-0.7-2.4-2.7s0.5-3.6,2.4-3.6c1,0,1.2,2.4,1.9,3
	C-202.1,277.5-201.1,276.4-201.1,277.4z"/>
<path class="st3" d="M-202.8,290.7c-1.7,1-1.6-2.5-3.5-2.5c-2.9,0-1.5-2.5,0.2-3.6s3.5-0.6,4.6,1.1c0.5,0.9-1.4,2.3-1.6,3.2
	C-203.4,289.8-201.9,290.2-202.8,290.7z"/>
<path class="st10" d="M-201.5,300c-0.9,1.7-2.5,1-4.5,0.7c-3.3-0.6-1.8-1.8-0.8-3.6c0.9-1.7,2.1-2.9,3.9-2c0.9,0.5-0.1,2.7,0.2,3.6
	S-201,299.1-201.5,300z"/>
<path class="st10" d="M-201.1,308.6c0,2-1.6,2.8-3.6,2.8c-2,0-3.6-0.8-3.6-2.8s2-4.8,3.6-3.6C-202.7,306.5-201.1,306.6-201.1,308.6z
	"/>
<path class="st10" d="M-197.9,307.8c0-2,1.7-2.1,3.6-2.7c3.2-1.1,2.4,0.7,2.4,2.7s-0.5,3.6-2.4,3.6c-1,0-1.2-2.4-1.9-3
	S-197.9,308.8-197.9,307.8z"/>
<path class="st3" d="M-196.2,294.5c1.7-1,1.6,2.5,3.5,2.5c2.9,0,1.5,2.5-0.2,3.6s-3.5,0.6-4.6-1.1c-0.5-0.9,1.4-2.3,1.6-3.2
	C-195.6,295.4-197.1,295-196.2,294.5z"/>
<path class="st3" d="M-197.5,285.2c0.9-1.7,2.5-1,4.5-0.7c3.3,0.6,1.8,1.8,0.8,3.6c-0.9,1.7-2.1,2.9-3.9,2c-0.9-0.5,0.1-2.7-0.2-3.6
	C-196.5,285.6-197.9,286-197.5,285.2z"/>
<path class="st10" d="M-198.5,277.1c0-2,1.6-2.8,3.6-2.8c2,0,3.6,0.8,3.6,2.8s-2,4.8-3.6,3.6C-196.9,279.2-198.5,279.1-198.5,277.1z
	"/>
<path class="st10" d="M-202,318.9c0,2-1.7,2.1-3.6,2.7c-3.2,1.1-2.4-0.7-2.4-2.7s0.5-3.6,2.4-3.6c1,0,1.2,2.4,1.9,3
	S-202,317.9-202,318.9z"/>
<path class="st10" d="M-198.8,318.2c0-2,1.6-2.8,3.6-2.8c2,0,3.6,0.8,3.6,2.8c0,2-2,4.8-3.6,3.6
	C-197.2,320.3-198.8,320.2-198.8,318.2z"/>
<rect x="-208.3" y="266.3" class="st30" width="15.5" height="4"/>
<text transform="matrix(1 0 0 1 -208.3423 269.2914)" class="st3 st31 st32">Cells</text>
</svg>
