<?xml version="1.0" encoding="iso-8859-1"?>
<!-- Generator: Adobe Illustrator 19.1.0, SVG Export Plug-In . SVG Version: 6.00 Build 0)  -->
<svg version="1.1" id="Layer_1" xmlns="http://www.w3.org/2000/svg" xmlns:xlink="http://www.w3.org/1999/xlink" x="0px" y="0px"
	 viewBox="0 0 357.333 142.246" style="enable-background:new 0 0 357.333 142.246;" xml:space="preserve">
<rect x="237.721" y="118.193" style="fill:#FFFFFF;stroke:#2C3E50;stroke-width:2;stroke-miterlimit:10;" width="30.343" height="21.569"/>
<rect x="238.27" y="118.193" style="fill:#2C3E50;" width="29.246" height="8.408"/>
<path style="fill:#FFFFFF;stroke:#2C3E50;stroke-width:2;stroke-miterlimit:10;" d="M327.106,114.172
	c0,4.038-3.273,7.312-7.312,7.312H185.992c-4.038,0-7.312-3.274-7.312-7.312V36.303c0-4.039,3.273-7.312,7.312-7.312h133.802
	c4.039,0,7.312,3.273,7.312,7.312V114.172z"/>
<rect x="185.261" y="35.206" style="fill:#ECF0F1;" width="133.489" height="65.073"/>
<line style="fill:#FFFFFF;stroke:#2C3E50;stroke-width:2;stroke-miterlimit:10;" x1="178.68" y1="105.033" x2="327.106" y2="105.033"/>
<rect x="231.567" y="137.203" style="fill:#FFFFFF;stroke:#2C3E50;stroke-width:2;stroke-miterlimit:10;" width="42.651" height="4.874"/>
<g>
	<g>
		<path style="fill:#2C3E50;" d="M254.609,112.794c-0.008-0.796,0.65-1.179,0.679-1.197c-0.369-0.54-0.944-0.614-1.149-0.623
			c-0.49-0.05-0.955,0.288-1.204,0.288c-0.248,0-0.631-0.281-1.037-0.272c-0.533,0.007-1.025,0.31-1.3,0.787
			c-0.554,0.963-0.142,2.387,0.398,3.167c0.265,0.382,0.579,0.81,0.992,0.795c0.399-0.015,0.549-0.257,1.03-0.257
			c0.482,0,0.617,0.257,1.037,0.249c0.429-0.008,0.7-0.388,0.962-0.772c0.303-0.443,0.428-0.871,0.436-0.894
			C255.442,114.061,254.616,113.744,254.609,112.794"/>
	</g>
	<path style="fill:#2C3E50;" d="M253.818,110.458c0.219-0.266,0.367-0.635,0.326-1.003c-0.316,0.012-0.699,0.211-0.926,0.476
		c-0.203,0.235-0.382,0.612-0.334,0.972C253.237,110.93,253.598,110.724,253.818,110.458"/>
</g>
<rect x="304.425" y="113.258" transform="matrix(0.9388 -0.3445 0.3445 0.9388 -22.994 115.4038)" style="fill:#26B99A;stroke:#2C3E50;stroke-width:2;stroke-miterlimit:10;" width="17.548" height="18.279"/>
<line style="fill:none;stroke:#2C3E50;stroke-width:2;stroke-miterlimit:10;" x1="306.33" y1="118.925" x2="313.199" y2="116.47"/>
<line style="fill:none;stroke:#2C3E50;stroke-width:2;stroke-miterlimit:10;" x1="307.34" y1="121.44" x2="312.081" y2="119.624"/>
<path style="fill:#35495E;" d="M128.593,138.507c0,1.574-1.011,2.85-2.257,2.85H32.537c-1.247,0-2.257-1.276-2.257-2.85V87.832
	c0-1.575,1.011-2.85,2.257-2.85h93.798c1.246,0,2.257,1.276,2.257,2.85V138.507z"/>
<path style="fill:#3E5770;" d="M81.863,135.227c0,1.06-0.859,1.918-1.918,1.918H37.314c-1.059,0-1.918-0.859-1.918-1.918v-28.35
	c0-1.06,0.859-1.919,1.918-1.919h42.631c1.059,0,1.918,0.859,1.918,1.919V135.227z"/>
<path style="fill:#2C3E50;" d="M125.742,63.445H78.234c-1.574,0-2.85,1.276-2.85,2.85v53.641v18.572v2.85h2.85h18.571h28.937
	c1.574,0,2.851-1.276,2.851-2.85V66.295C128.593,64.721,127.316,63.445,125.742,63.445z"/>
<rect x="116.02" y="141.358" style="fill:#95A5A5;" width="4.796" height="1.159"/>
<rect x="79.818" y="68.513" style="fill:#FFFFFF;" width="44.973" height="27.871"/>
<rect x="75.383" y="100.909" style="fill:#ECF0F1;" width="21.293" height="1.492"/>
<g>
	<rect x="35.395" y="86.219" style="fill:#2C3E50;" width="14.281" height="7"/>
</g>
<rect x="79.818" y="68.513" style="fill:#BDC3C7;" width="44.973" height="2.662"/>
<rect x="79.818" y="71.175" style="fill:#95A5A5;" width="44.973" height="2.877"/>
<rect x="81.863" y="78.496" style="fill:#ECF0F1;" width="21.848" height="13.748"/>
<rect x="106.644" y="78.208" style="fill:#BDC3C7;" width="15.61" height="1.28"/>
<rect x="106.644" y="80.648" style="fill:#BDC3C7;" width="6.338" height="1.28"/>
<rect x="106.644" y="83.088" style="fill:#BDC3C7;" width="9.376" height="1.28"/>
<rect x="83.142" y="84.656" style="fill:#26B99A;" width="1.385" height="7.588"/>
<rect x="86.126" y="88.451" style="fill:#E64C3C;" width="1.385" height="3.794"/>
<rect x="89.11" y="81.288" style="fill:#F0C419;" width="1.385" height="10.957"/>
<rect x="92.094" y="85.87" style="fill:#3B97D3;" width="1.385" height="6.375"/>
<rect x="94.758" y="85.87" style="fill:#3B97D3;" width="1.385" height="6.375"/>
<rect x="97.316" y="81.288" style="fill:#F0C419;" width="1.385" height="10.957"/>
<rect x="100.603" y="84.656" style="fill:#26B99A;" width="1.385" height="7.588"/>
<g>
	<path style="fill-rule:evenodd;clip-rule:evenodd;fill:#2C3E50;" d="M144.859,73.375c-2.633,1.528-5.587,2.736-8.451,4.033
		c-0.367-1.033-0.985-1.409-0.957-2.305c0.058-2.279,6.056-4.735,7.681-4.226C144.258,71.233,144.236,72.618,144.859,73.375z"/>
	<path style="fill-rule:evenodd;clip-rule:evenodd;fill:#2C3E50;" d="M158.111,104.684c-2.147,0.925-4.107,2.04-6.337,2.883
		c-0.805-0.412-0.966-1.465-1.347-2.305c-2.282,3.236-5.12,5.826-4.8,11.719c0.133,2.449,1.409,7.142,3.652,7.682
		c1.579,0.381,3.849-0.823,5.376-1.536c3.433-1.603,5.444-2.481,9.22-4.227c2.403-1.107,6.221-3.755,5.955,0.577
		c-4.25,3.126-10.298,4.719-15.175,7.684c-0.219,0.794-0.219,1.511,0,2.303c-1.556-3.173-9.172-3.053-10.756,0
		c-7.238-7.472-5.339-19.112,0.383-25.74c2.3-2.659,6.61-4.256,5.761-9.411c-0.491-3.007-3.508-5.53-7.682-4.801
		c-1.817-3.871-3.615-7.6-5.762-11.525c2.548-1.551,5.583-2.615,8.261-4.035C149.478,83.996,153.888,94.25,158.111,104.684z"/>
	<path style="fill-rule:evenodd;clip-rule:evenodd;fill:#2C3E50;" d="M162.916,104.493c1.761,2.451-3.275,3.812-5.378,4.803
		c-2.641,1.242-4.723,2.874-6.726,1.921c-1.115-2.521,2.236-3.403,4.805-4.61C158.38,105.31,160.603,103.829,162.916,104.493z"/>
	<path style="fill-rule:evenodd;clip-rule:evenodd;fill:#2C3E50;" d="M169.446,116.98
		C169.365,116.898,169.572,117.105,169.446,116.98L169.446,116.98z"/>
	<path style="fill-rule:evenodd;clip-rule:evenodd;fill:#2C3E50;" d="M158.689,127.161
		C158.609,127.08,158.816,127.285,158.689,127.161L158.689,127.161z"/>
	<path style="fill-rule:evenodd;clip-rule:evenodd;fill:#2C3E50;" d="M156.961,137.724c2.651,0,6.136,0,9.795,0
		c6.115,0,12.192-1.331,11.336,4.996c-14.728,0-29.456,0-44.181,0c-0.718-4.879,2.929-5.393,7.492-4.996
		c2.246-2.471,2.432-8.652,6.338-9.411C154.375,127.022,154.797,133.706,156.961,137.724z"/>
	<path style="fill-rule:evenodd;clip-rule:evenodd;fill:#2C3E50;" d="M155.808,130.425
		C155.727,130.347,155.933,130.553,155.808,130.425L155.808,130.425z"/>
	<path style="fill-rule:evenodd;clip-rule:evenodd;fill:#2C3E50;" d="M158.539,117.032c-0.586,0.277-1.227,0.162-1.427-0.263
		l-2.228-4.656c-0.204-0.426,0.109-0.998,0.694-1.276l0,0c0.586-0.281,1.224-0.165,1.426,0.262l2.229,4.657
		C159.436,116.179,159.124,116.749,158.539,117.032L158.539,117.032z"/>
	<path style="fill-rule:evenodd;clip-rule:evenodd;fill:#2C3E50;" d="M160.643,113.061c-0.583,0.282-1.154,0.306-1.275,0.059
		l-1.307-2.736c-0.119-0.249,0.259-0.679,0.847-0.958l0,0c0.586-0.279,1.157-0.304,1.275-0.057l1.307,2.737
		C161.608,112.353,161.231,112.783,160.643,113.061L160.643,113.061z"/>
	<circle style="fill-rule:evenodd;clip-rule:evenodd;fill:#35495E;" cx="143.409" cy="95.834" r="5.378"/>
	<path style="fill-rule:evenodd;clip-rule:evenodd;fill:#2C3E50;" d="M170.688,126.78l-0.996-2.164
		c-0.485-1.058-1.662-1.554-2.626-1.112l-8.725,4.016c-0.817,0.376-1.217,1.307-1.025,2.222l3.102-1.426
		c0.501-0.231,1.14,0.09,1.429,0.721l0.594,1.287c0.29,0.628,0.113,1.321-0.386,1.554l-2.937,1.349
		c0.57,0.449,1.321,0.585,1.976,0.282l8.728-4.017C170.786,129.05,171.173,127.834,170.688,126.78z"/>
	<path style="fill-rule:evenodd;clip-rule:evenodd;fill:#2C3E50;" d="M161.974,130.261c0.206,0.452-0.106,1.034-0.698,1.306
		l-5.339,2.462c-0.593,0.271-1.24,0.126-1.445-0.322l-0.425-0.92c-0.205-0.449,0.106-1.032,0.698-1.303l5.344-2.461
		c0.59-0.272,1.235-0.129,1.44,0.321L161.974,130.261z"/>
</g>
<g>
	<path style="fill:#BDC3C7;" d="M224.26,93.646h-1.38c0-14.538-15.318-37.939-24.833-37.939v-1.38
		C208.337,54.328,224.26,78.213,224.26,93.646z"/>
</g>
<g>
	<path style="fill:#26B99A;" d="M244.264,73.297c-14.074,0-25.523-13.461-25.523-30.007h2.069c0,15.405,10.521,27.937,23.453,27.937
		V73.297z"/>
</g>
<g>
	<path style="fill:#2C3E50;" d="M197.864,81.19l-0.323-0.609c21.432-11.378,23.098-31.42,23.098-37.291h0.69
		C221.328,49.258,219.636,69.631,197.864,81.19z"/>
</g>
<g>
	<path style="fill:#2C3E50;" d="M198.565,80.838l-0.346-0.597c20.311-11.776,26.381-11.773,46.373-11.773h0.88v0.69h-0.88
		C224.712,69.15,218.714,69.154,198.565,80.838z"/>
</g>
<g>
	<path style="fill:#BDC3C7;" d="M224.432,91.921h-1.38c0-6.663,3.45-16.039,6.679-22.592c1.594-3.236,7.144-13.795,11.601-13.795
		v1.38C236.421,56.914,224.432,79.885,224.432,91.921z"/>
</g>
<g>
	<path style="fill:#2C3E50;" d="M238.317,84.843c-5.723-10.195-22.697-20.515-44.063-20.515v-1.38
		c21.897,0,39.347,10.674,45.267,21.22L238.317,84.843z"/>
</g>
<g>
	<path style="fill:#2C3E50;" d="M208.739,90.542h-1.38c0-11.837,22.657-35.18,34.145-35.18v1.38
		C230.788,56.741,208.739,79.485,208.739,90.542z"/>
</g>
<g>
	<path style="fill:#26B99A;" d="M238.056,86.403h-1.38c0-3.113-6.232-8.536-15.508-13.496c-9.55-5.106-19.776-8.405-26.053-8.405
		v-1.38c7.874,0,18.957,4.426,26.704,8.568C225.628,73.727,238.056,80.807,238.056,86.403z"/>
</g>
<g>
	<path style="fill:#2C3E50;" d="M226.255,44.672c-3.876-1.061-8.071-1.144-11.991-0.243l-0.463-2.017
		c4.25-0.977,8.796-0.886,13,0.263L226.255,44.672z"/>
</g>
<g>
	<path style="fill:#2C3E50;" d="M202.543,50.896l-1.456-1.47c2.661-2.636,5.777-4.644,9.262-5.968l0.734,1.935
		C207.87,46.614,204.997,48.465,202.543,50.896z"/>
</g>
<g>
	<path style="fill:#BDC3C7;" d="M197.639,57.808l-1.869-0.888c0.955-2.011,2.162-3.898,3.587-5.609l1.59,1.324
		C199.633,54.213,198.52,55.953,197.639,57.808z"/>
</g>
<g>
	<path style="fill:#26B99A;" d="M195.288,68.294h-2.069c0-3.427,0.644-6.764,1.913-9.917l1.92,0.773
		C195.882,62.056,195.288,65.133,195.288,68.294z"/>
</g>
<g>
	<path style="fill:#2C3E50;" d="M198.357,83.998c-2.917-3.972-4.664-8.666-5.054-13.574l2.063-0.164
		c0.36,4.524,1.971,8.852,4.66,12.513L198.357,83.998z"/>
</g>
<g>
	<path style="fill:#2C3E50;" d="M213.538,94.115c-5.002-1.204-9.524-3.83-13.077-7.592l1.505-1.421
		c3.276,3.47,7.445,5.891,12.057,7.002L213.538,94.115z"/>
</g>
<g>
	<path style="fill:#BDC3C7;" d="M219.776,95.196c-1.175,0-2.358-0.076-3.516-0.227l0.356-2.736
		c4.906,0.639,10.047-0.266,14.413-2.571l1.288,2.44C228.482,94.126,224.145,95.196,219.776,95.196z"/>
</g>
<g>
	<path style="fill:#2C3E50;" d="M235.661,89.58l-1.24-1.657c2.742-2.05,5.073-4.71,6.741-7.692l1.807,1.01
		C241.161,84.474,238.633,87.357,235.661,89.58z"/>
</g>
<g>
	<path style="fill:#26B99A;" d="M244.613,77.718l-1.935-0.734c1.052-2.772,1.586-5.696,1.586-8.69c0-0.961-0.056-1.922-0.166-2.859
		l2.056-0.241c0.119,1.017,0.179,2.059,0.179,3.1C246.334,71.54,245.755,74.711,244.613,77.718z"/>
</g>
<g>
	<path style="fill:#2C3E50;" d="M242.778,59.871c-0.899-2.454-2.183-4.74-3.813-6.794l1.621-1.287
		c1.769,2.227,3.16,4.707,4.135,7.369L242.778,59.871z"/>
</g>
<g>
	<path style="fill:#2C3E50;" d="M236.431,50.341c-2.364-2.194-5.088-3.875-8.096-4.998l0.724-1.939
		c3.262,1.218,6.217,3.041,8.78,5.42L236.431,50.341z"/>
</g>
<polygon style="opacity:0.4;fill:#FFFFFF;" points="185.261,35.206 185.261,92.968 305.472,35.206 "/>
<path style="fill:#14A085;" d="M300.736,45.624c0,0.384-0.311,0.695-0.695,0.695h-3.995c-0.384,0-0.695-0.311-0.695-0.695V45.45
	c0-0.384,0.311-0.695,0.695-0.695h3.995c0.384,0,0.695,0.311,0.695,0.695V45.624z"/>
<path style="fill:#26B99A;" d="M300.648,48.948c0,0.384-0.311,0.695-0.695,0.695h-3.995c-0.384,0-0.695-0.311-0.695-0.695v-0.174
	c0-0.384,0.311-0.695,0.695-0.695h3.995c0.384,0,0.695,0.311,0.695,0.695V48.948z"/>
<path style="fill:#26B99A;" d="M305.158,52.131c0,0.384-0.311,0.695-0.695,0.695h-3.996c-0.383,0-0.695-0.311-0.695-0.695v-0.174
	c0-0.384,0.311-0.695,0.695-0.695h3.996c0.384,0,0.695,0.311,0.695,0.695V52.131z"/>
<circle style="fill:#24AE5F;" cx="304.38" cy="52.045" r="0.782"/>
<circle style="fill:#2C3E50;" cx="300.558" cy="52.045" r="0.782"/>
<path style="fill:#4FBA6F;" d="M292.488,52.131c0,0.384-0.311,0.695-0.695,0.695h-3.995c-0.384,0-0.695-0.311-0.695-0.695v-0.174
	c0-0.384,0.311-0.695,0.695-0.695h3.995c0.384,0,0.695,0.311,0.695,0.695V52.131z"/>
<path style="fill:#35495E;" d="M298.065,52.131c0,0.384-0.311,0.695-0.695,0.695h-3.995c-0.384,0-0.695-0.311-0.695-0.695v-0.174
	c0-0.384,0.311-0.695,0.695-0.695h3.995c0.384,0,0.695,0.311,0.695,0.695V52.131z"/>
<circle style="fill:#26B99A;" cx="297.359" cy="52.045" r="0.782"/>
<circle style="fill:#2C3E50;" cx="289.103" cy="48.87" r="0.782"/>
<circle style="fill:#24AE5F;" cx="296.051" cy="48.87" r="0.782"/>
<path style="fill:#24AE5F;" d="M283.689,45.624c0,0.384,0.311,0.695,0.695,0.695h3.995c0.384,0,0.695-0.311,0.695-0.695V45.45
	c0-0.384-0.311-0.695-0.695-0.695h-3.995c-0.384,0-0.695,0.311-0.695,0.695V45.624z"/>
<path style="fill:#26B99A;" d="M287.684,45.624c0,0.384,0.311,0.695,0.695,0.695h3.995c0.384,0,0.695-0.311,0.695-0.695V45.45
	c0-0.384-0.311-0.695-0.695-0.695h-3.995c-0.384,0-0.695,0.311-0.695,0.695V45.624z"/>
<circle style="fill:#019347;" cx="282.907" cy="45.537" r="0.782"/>
<circle style="fill:#2C3E50;" cx="296.167" cy="45.537" r="0.782"/>
<circle style="fill:#24AE5F;" cx="302.584" cy="45.537" r="0.782"/>
<path style="fill:#26B99A;" d="M285.822,55.22c0-0.384,0.311-0.695,0.695-0.695h3.995c0.383,0,0.695,0.311,0.695,0.695v0.174
	c0,0.384-0.311,0.695-0.695,0.695h-3.995c-0.384,0-0.695-0.311-0.695-0.695V55.22z"/>
<path style="fill:#14A085;" d="M275.033,58.544c0-0.384,0.311-0.695,0.695-0.695h3.995c0.384,0,0.695,0.311,0.695,0.695v0.174
	c0,0.384-0.311,0.695-0.695,0.695h-3.995c-0.384,0-0.695-0.311-0.695-0.695V58.544z"/>
<path style="fill:#26B99A;" d="M275.121,55.22c0-0.384,0.311-0.695,0.695-0.695h3.995c0.384,0,0.695,0.311,0.695,0.695v0.174
	c0,0.384-0.311,0.695-0.695,0.695h-3.995c-0.384,0-0.695-0.311-0.695-0.695V55.22z"/>
<path style="fill:#26B99A;" d="M270.611,52.036c0-0.384,0.311-0.695,0.695-0.695h3.996c0.383,0,0.695,0.311,0.695,0.695v0.174
	c0,0.384-0.311,0.695-0.695,0.695h-3.996c-0.384,0-0.695-0.311-0.695-0.695V52.036z"/>
<circle style="fill:#24AE5F;" cx="271.389" cy="52.123" r="0.782"/>
<circle style="fill:#2C3E50;" cx="275.211" cy="52.123" r="0.782"/>
<path style="fill:#4FBA6F;" d="M281.281,52.036c0-0.384,0.311-0.695,0.695-0.695h3.995c0.384,0,0.695,0.311,0.695,0.695v0.174
	c0,0.384-0.311,0.695-0.695,0.695h-3.995c-0.384,0-0.695-0.311-0.695-0.695V52.036z"/>
<path style="fill:#35495E;" d="M277.704,52.036c0-0.384,0.311-0.695,0.695-0.695h3.995c0.384,0,0.695,0.311,0.695,0.695v0.174
	c0,0.384-0.311,0.695-0.695,0.695h-3.995c-0.384,0-0.695-0.311-0.695-0.695V52.036z"/>
<circle style="fill:#26B99A;" cx="282.41" cy="52.123" r="0.782"/>
<circle style="fill:#2C3E50;" cx="286.666" cy="55.297" r="0.782"/>
<circle style="fill:#24AE5F;" cx="279.717" cy="55.297" r="0.782"/>
<path style="fill:#24AE5F;" d="M292.08,58.544c0-0.384-0.311-0.695-0.695-0.695h-3.995c-0.384,0-0.695,0.311-0.695,0.695v0.174
	c0,0.384,0.311,0.695,0.695,0.695h3.995c0.384,0,0.695-0.311,0.695-0.695V58.544z"/>
<path style="fill:#26B99A;" d="M288.085,58.544c0-0.384-0.311-0.695-0.695-0.695h-3.995c-0.384,0-0.695,0.311-0.695,0.695v0.174
	c0,0.384,0.311,0.695,0.695,0.695h3.995c0.384,0,0.695-0.311,0.695-0.695V58.544z"/>
<circle style="fill:#019347;" cx="292.862" cy="58.631" r="0.782"/>
<circle style="fill:#2C3E50;" cx="279.602" cy="58.631" r="0.782"/>
<circle style="fill:#24AE5F;" cx="273.185" cy="58.631" r="0.782"/>
<circle style="fill:#2C3E50;" cx="275.996" cy="45.537" r="0.782"/>
<path style="fill:#35495E;" d="M279.47,48.957c0,0.384-0.311,0.695-0.695,0.695h-3.995c-0.384,0-0.695-0.311-0.695-0.695v-0.174
	c0-0.384,0.311-0.695,0.695-0.695h3.995c0.384,0,0.695,0.311,0.695,0.695V48.957z"/>
<path style="fill:#14A085;" d="M297.787,63.491c0,0.384-0.311,0.695-0.695,0.695h-3.995c-0.384,0-0.695-0.311-0.695-0.695v-0.174
	c0-0.384,0.311-0.695,0.695-0.695h3.995c0.384,0,0.695,0.311,0.695,0.695V63.491z"/>
<path style="fill:#26B99A;" d="M297.699,66.815c0,0.384-0.311,0.695-0.695,0.695h-3.995c-0.384,0-0.695-0.311-0.695-0.695v-0.174
	c0-0.384,0.311-0.695,0.695-0.695h3.995c0.384,0,0.695,0.311,0.695,0.695V66.815z"/>
<path style="fill:#26B99A;" d="M302.21,69.999c0,0.384-0.311,0.695-0.695,0.695h-3.996c-0.383,0-0.695-0.311-0.695-0.695v-0.174
	c0-0.384,0.311-0.695,0.695-0.695h3.996c0.384,0,0.695,0.311,0.695,0.695V69.999z"/>
<circle style="fill:#24AE5F;" cx="301.431" cy="69.913" r="0.782"/>
<circle style="fill:#2C3E50;" cx="297.609" cy="69.913" r="0.782"/>
<path style="fill:#4FBA6F;" d="M289.539,69.999c0,0.384-0.311,0.695-0.695,0.695h-3.995c-0.384,0-0.695-0.311-0.695-0.695v-0.174
	c0-0.384,0.311-0.695,0.695-0.695h3.995c0.384,0,0.695,0.311,0.695,0.695V69.999z"/>
<path style="fill:#35495E;" d="M295.116,69.999c0,0.384-0.311,0.695-0.695,0.695h-3.995c-0.384,0-0.695-0.311-0.695-0.695v-0.174
	c0-0.384,0.311-0.695,0.695-0.695h3.995c0.384,0,0.695,0.311,0.695,0.695V69.999z"/>
<circle style="fill:#26B99A;" cx="294.41" cy="69.913" r="0.782"/>
<circle style="fill:#2C3E50;" cx="286.154" cy="66.738" r="0.782"/>
<circle style="fill:#24AE5F;" cx="293.103" cy="66.738" r="0.782"/>
<path style="fill:#24AE5F;" d="M280.74,63.491c0,0.384,0.311,0.695,0.695,0.695h3.995c0.384,0,0.695-0.311,0.695-0.695v-0.174
	c0-0.384-0.311-0.695-0.695-0.695h-3.995c-0.384,0-0.695,0.311-0.695,0.695V63.491z"/>
<path style="fill:#26B99A;" d="M284.735,63.491c0,0.384,0.311,0.695,0.695,0.695h3.995c0.384,0,0.695-0.311,0.695-0.695v-0.174
	c0-0.384-0.311-0.695-0.695-0.695h-3.995c-0.384,0-0.695,0.311-0.695,0.695V63.491z"/>
<circle style="fill:#019347;" cx="279.958" cy="63.405" r="0.782"/>
<circle style="fill:#2C3E50;" cx="293.218" cy="63.405" r="0.782"/>
<circle style="fill:#24AE5F;" cx="299.635" cy="63.405" r="0.782"/>
<path style="fill:#26B99A;" d="M282.874,73.088c0-0.384,0.311-0.695,0.695-0.695h3.995c0.383,0,0.695,0.311,0.695,0.695v0.174
	c0,0.384-0.311,0.695-0.695,0.695h-3.995c-0.384,0-0.695-0.311-0.695-0.695V73.088z"/>
<path style="fill:#14A085;" d="M272.084,76.412c0-0.384,0.311-0.695,0.695-0.695h3.995c0.384,0,0.695,0.311,0.695,0.695v0.174
	c0,0.384-0.311,0.695-0.695,0.695h-3.995c-0.384,0-0.695-0.311-0.695-0.695V76.412z"/>
<path style="fill:#26B99A;" d="M272.173,73.088c0-0.384,0.311-0.695,0.695-0.695h3.995c0.384,0,0.695,0.311,0.695,0.695v0.174
	c0,0.384-0.311,0.695-0.695,0.695h-3.995c-0.384,0-0.695-0.311-0.695-0.695V73.088z"/>
<path style="fill:#26B99A;" d="M267.662,69.904c0-0.384,0.311-0.695,0.695-0.695h3.996c0.383,0,0.695,0.311,0.695,0.695v0.174
	c0,0.384-0.311,0.695-0.695,0.695h-3.996c-0.384,0-0.695-0.311-0.695-0.695V69.904z"/>
<circle style="fill:#24AE5F;" cx="268.44" cy="69.991" r="0.782"/>
<circle style="fill:#2C3E50;" cx="272.262" cy="69.991" r="0.782"/>
<path style="fill:#4FBA6F;" d="M278.332,69.904c0-0.384,0.311-0.695,0.695-0.695h3.995c0.384,0,0.695,0.311,0.695,0.695v0.174
	c0,0.384-0.311,0.695-0.695,0.695h-3.995c-0.384,0-0.695-0.311-0.695-0.695V69.904z"/>
<path style="fill:#35495E;" d="M274.755,69.904c0-0.384,0.311-0.695,0.695-0.695h3.995c0.384,0,0.695,0.311,0.695,0.695v0.174
	c0,0.384-0.311,0.695-0.695,0.695h-3.995c-0.384,0-0.695-0.311-0.695-0.695V69.904z"/>
<circle style="fill:#26B99A;" cx="279.461" cy="69.991" r="0.782"/>
<circle style="fill:#2C3E50;" cx="283.717" cy="73.165" r="0.782"/>
<circle style="fill:#24AE5F;" cx="276.769" cy="73.165" r="0.782"/>
<path style="fill:#24AE5F;" d="M289.132,76.412c0-0.384-0.311-0.695-0.695-0.695h-3.995c-0.384,0-0.695,0.311-0.695,0.695v0.174
	c0,0.384,0.311,0.695,0.695,0.695h3.995c0.384,0,0.695-0.311,0.695-0.695V76.412z"/>
<path style="fill:#26B99A;" d="M285.136,76.412c0-0.384-0.311-0.695-0.695-0.695h-3.995c-0.384,0-0.695,0.311-0.695,0.695v0.174
	c0,0.384,0.311,0.695,0.695,0.695h3.995c0.384,0,0.695-0.311,0.695-0.695V76.412z"/>
<circle style="fill:#019347;" cx="289.913" cy="76.499" r="0.782"/>
<circle style="fill:#2C3E50;" cx="276.654" cy="76.499" r="0.782"/>
<circle style="fill:#24AE5F;" cx="270.236" cy="76.499" r="0.782"/>
<circle style="fill:#2C3E50;" cx="273.047" cy="63.405" r="0.782"/>
<path style="fill:#35495E;" d="M276.521,66.825c0,0.384-0.311,0.695-0.695,0.695h-3.995c-0.384,0-0.695-0.311-0.695-0.695v-0.174
	c0-0.384,0.311-0.695,0.695-0.695h3.995c0.384,0,0.695,0.311,0.695,0.695V66.825z"/>
<path style="fill:#14A085;" d="M305.288,80.202c0,0.384-0.311,0.695-0.695,0.695h-3.995c-0.384,0-0.695-0.311-0.695-0.695v-0.174
	c0-0.384,0.311-0.695,0.695-0.695h3.995c0.384,0,0.695,0.311,0.695,0.695V80.202z"/>
<path style="fill:#26B99A;" d="M305.2,83.526c0,0.384-0.311,0.695-0.695,0.695h-3.995c-0.384,0-0.695-0.311-0.695-0.695v-0.174
	c0-0.384,0.311-0.695,0.695-0.695h3.995c0.384,0,0.695,0.311,0.695,0.695V83.526z"/>
<path style="fill:#26B99A;" d="M309.71,86.709c0,0.384-0.311,0.695-0.695,0.695h-3.996c-0.383,0-0.695-0.311-0.695-0.695v-0.174
	c0-0.384,0.311-0.695,0.695-0.695h3.996c0.384,0,0.695,0.311,0.695,0.695V86.709z"/>
<circle style="fill:#24AE5F;" cx="308.932" cy="86.623" r="0.782"/>
<circle style="fill:#2C3E50;" cx="305.11" cy="86.623" r="0.782"/>
<path style="fill:#4FBA6F;" d="M297.04,86.709c0,0.384-0.311,0.695-0.695,0.695h-3.995c-0.384,0-0.695-0.311-0.695-0.695v-0.174
	c0-0.384,0.311-0.695,0.695-0.695h3.995c0.384,0,0.695,0.311,0.695,0.695V86.709z"/>
<path style="fill:#35495E;" d="M302.617,86.709c0,0.384-0.311,0.695-0.695,0.695h-3.995c-0.384,0-0.695-0.311-0.695-0.695v-0.174
	c0-0.384,0.311-0.695,0.695-0.695h3.995c0.384,0,0.695,0.311,0.695,0.695V86.709z"/>
<circle style="fill:#26B99A;" cx="301.911" cy="86.623" r="0.782"/>
<circle style="fill:#2C3E50;" cx="293.655" cy="83.448" r="0.782"/>
<circle style="fill:#24AE5F;" cx="300.603" cy="83.448" r="0.782"/>
<path style="fill:#24AE5F;" d="M288.241,80.202c0,0.384,0.311,0.695,0.695,0.695h3.995c0.384,0,0.695-0.311,0.695-0.695v-0.174
	c0-0.384-0.311-0.695-0.695-0.695h-3.995c-0.384,0-0.695,0.311-0.695,0.695V80.202z"/>
<path style="fill:#26B99A;" d="M292.236,80.202c0,0.384,0.311,0.695,0.695,0.695h3.995c0.384,0,0.695-0.311,0.695-0.695v-0.174
	c0-0.384-0.311-0.695-0.695-0.695h-3.995c-0.384,0-0.695,0.311-0.695,0.695V80.202z"/>
<circle style="fill:#019347;" cx="287.459" cy="80.115" r="0.782"/>
<circle style="fill:#2C3E50;" cx="300.719" cy="80.115" r="0.782"/>
<circle style="fill:#24AE5F;" cx="307.136" cy="80.115" r="0.782"/>
<path style="fill:#26B99A;" d="M290.374,89.798c0-0.384,0.311-0.695,0.695-0.695h3.995c0.383,0,0.695,0.311,0.695,0.695v0.174
	c0,0.384-0.311,0.695-0.695,0.695h-3.995c-0.384,0-0.695-0.311-0.695-0.695V89.798z"/>
<path style="fill:#14A085;" d="M279.585,93.122c0-0.384,0.311-0.695,0.695-0.695h3.995c0.384,0,0.695,0.311,0.695,0.695v0.174
	c0,0.384-0.311,0.695-0.695,0.695h-3.995c-0.384,0-0.695-0.311-0.695-0.695V93.122z"/>
<path style="fill:#26B99A;" d="M279.673,89.798c0-0.384,0.311-0.695,0.695-0.695h3.995c0.384,0,0.695,0.311,0.695,0.695v0.174
	c0,0.384-0.311,0.695-0.695,0.695h-3.995c-0.384,0-0.695-0.311-0.695-0.695V89.798z"/>
<path style="fill:#26B99A;" d="M275.163,86.614c0-0.384,0.311-0.695,0.695-0.695h3.996c0.383,0,0.695,0.311,0.695,0.695v0.174
	c0,0.384-0.311,0.695-0.695,0.695h-3.996c-0.384,0-0.695-0.311-0.695-0.695V86.614z"/>
<circle style="fill:#24AE5F;" cx="275.941" cy="86.701" r="0.782"/>
<circle style="fill:#2C3E50;" cx="279.763" cy="86.701" r="0.782"/>
<path style="fill:#4FBA6F;" d="M285.833,86.614c0-0.384,0.311-0.695,0.695-0.695h3.995c0.384,0,0.695,0.311,0.695,0.695v0.174
	c0,0.384-0.311,0.695-0.695,0.695h-3.995c-0.384,0-0.695-0.311-0.695-0.695V86.614z"/>
<path style="fill:#35495E;" d="M282.256,86.614c0-0.384,0.311-0.695,0.695-0.695h3.995c0.384,0,0.695,0.311,0.695,0.695v0.174
	c0,0.384-0.311,0.695-0.695,0.695h-3.995c-0.384,0-0.695-0.311-0.695-0.695V86.614z"/>
<circle style="fill:#26B99A;" cx="286.962" cy="86.701" r="0.782"/>
<circle style="fill:#2C3E50;" cx="291.218" cy="89.876" r="0.782"/>
<circle style="fill:#24AE5F;" cx="284.27" cy="89.876" r="0.782"/>
<path style="fill:#24AE5F;" d="M296.632,93.122c0-0.384-0.311-0.695-0.695-0.695h-3.995c-0.384,0-0.695,0.311-0.695,0.695v0.174
	c0,0.384,0.311,0.695,0.695,0.695h3.995c0.384,0,0.695-0.311,0.695-0.695V93.122z"/>
<path style="fill:#26B99A;" d="M292.637,93.122c0-0.384-0.311-0.695-0.695-0.695h-3.995c-0.384,0-0.695,0.311-0.695,0.695v0.174
	c0,0.384,0.311,0.695,0.695,0.695h3.995c0.384,0,0.695-0.311,0.695-0.695V93.122z"/>
<circle style="fill:#019347;" cx="297.414" cy="93.209" r="0.782"/>
<circle style="fill:#2C3E50;" cx="284.154" cy="93.209" r="0.782"/>
<circle style="fill:#24AE5F;" cx="277.737" cy="93.209" r="0.782"/>
<circle style="fill:#2C3E50;" cx="280.548" cy="80.115" r="0.782"/>
<path style="fill:#35495E;" d="M284.022,83.535c0,0.384-0.311,0.695-0.695,0.695h-3.995c-0.384,0-0.695-0.311-0.695-0.695v-0.174
	c0-0.384,0.311-0.695,0.695-0.695h3.995c0.384,0,0.695,0.311,0.695,0.695V83.535z"/>
<rect x="37.88" y="141.358" style="fill:#95A5A5;" width="4.796" height="1.159"/>
</svg>
