<?xml version="1.0" encoding="iso-8859-1"?>
<!-- Generator: Adobe Illustrator 19.1.0, SVG Export Plug-In . SVG Version: 6.00 Build 0)  -->
<svg version="1.1" id="Layer_1" xmlns="http://www.w3.org/2000/svg" xmlns:xlink="http://www.w3.org/1999/xlink" x="0px" y="0px"
	 viewBox="0 0 101 51.333" style="enable-background:new 0 0 101 51.333;" xml:space="preserve">
<g>
	<path style="fill:#2C3E50;" d="M25.97,23.506c0,5.072-3.19,8.548-8.038,8.548c-2.711,0-4.753-1.084-5.997-3.062v2.935H8.267V8.259
		h3.668v9.633c1.244-1.978,3.286-3.062,5.933-3.062C22.684,14.83,25.97,18.339,25.97,23.506z M22.27,23.379
		c0-3.158-2.137-5.486-5.168-5.486s-5.168,2.296-5.168,5.486c0,3.285,2.137,5.55,5.168,5.55S22.27,26.632,22.27,23.379z"/>
	<path style="fill:#2C3E50;" d="M33.752,10.11c0,1.276-0.925,2.201-2.137,2.201c-1.212,0-2.137-0.925-2.137-2.201
		c0-1.308,0.925-2.233,2.137-2.233C32.827,7.877,33.752,8.802,33.752,10.11z M29.797,31.927V14.958h3.636v16.969H29.797z"/>
	<path style="fill:#2C3E50;" d="M54.964,23.443c0,5.104-3.604,8.612-8.835,8.612c-5.263,0-8.868-3.508-8.868-8.612
		c0-5.136,3.604-8.612,8.868-8.612C51.36,14.83,54.964,18.307,54.964,23.443z M40.93,23.474c0,3.285,2.137,5.518,5.199,5.518
		c3.03,0,5.167-2.233,5.167-5.518c0-3.253-2.137-5.486-5.167-5.486C43.067,17.988,40.93,20.221,40.93,23.474z"/>
	<path style="fill:#2C3E50;" d="M62.046,31.927l-6.571-16.969h3.828l4.72,13.365l4.657-13.365h3.668l-6.507,16.969H62.046z"/>
	<path style="fill:#2C3E50;" d="M78.856,10.11c0,1.276-0.925,2.201-2.137,2.201s-2.137-0.925-2.137-2.201
		c0-1.308,0.925-2.233,2.137-2.233S78.856,8.802,78.856,10.11z M74.9,31.927V14.958h3.636v16.969H74.9z"/>
	<path style="fill:#2C3E50;" d="M94.963,16.521l-1.341,2.711c-1.499-0.925-3.38-1.499-4.879-1.499c-1.436,0-2.488,0.478-2.488,1.69
		c0,3.126,9.026,1.436,8.995,7.592c0,3.477-3.094,5.04-6.507,5.04c-2.488,0-5.136-0.829-6.826-2.36l1.308-2.615
		c1.467,1.308,3.828,2.105,5.678,2.105c1.563,0,2.775-0.542,2.775-1.818c0-3.477-8.931-1.531-8.899-7.656
		c0-3.445,2.999-4.912,6.252-4.912C91.168,14.798,93.432,15.436,94.963,16.521z"/>
</g>
<g>
	<path style="fill:#BDC3C7;" d="M66.198,40.333h-8.893c-0.655,0-1.186-0.346-1.186-1c0-0.655,0.531-1,1.186-1h8.893
		c0.655,0,1.187,0.345,1.187,1C67.384,39.987,66.852,40.333,66.198,40.333z"/>
</g>
<g>
	<path style="fill:#00A6AC;" d="M18.173,40.333H8.687c-0.655,0-1.186-0.346-1.186-1c0-0.655,0.531-1,1.186-1h9.486
		c0.655,0,1.186,0.345,1.186,1C19.359,39.987,18.827,40.333,18.173,40.333z"/>
</g>
<g>
	<path style="fill:#2C3E50;" d="M80.428,40.333h-8.894c-0.655,0-1.185-0.346-1.185-1c0-0.655,0.531-1,1.185-1h8.894
		c0.655,0,1.186,0.345,1.186,1C81.614,39.987,81.083,40.333,80.428,40.333z"/>
</g>
<g>
	<path style="fill:#2C3E50;" d="M52.562,40.333H38.924c-0.655,0-1.186-0.346-1.186-1c0-0.655,0.531-1,1.186-1h13.637
		c0.655,0,1.185,0.345,1.185,1C53.747,39.987,53.216,40.333,52.562,40.333z"/>
</g>
<g>
	<path style="fill:#BDC3C7;" d="M33.588,40.333H22.323c-0.655,0-1.186-0.346-1.186-1c0-0.655,0.531-1,1.186-1h11.265
		c0.655,0,1.186,0.345,1.186,1C34.774,39.987,34.243,40.333,33.588,40.333z"/>
</g>
<g>
	<path style="fill:#00A6AC;" d="M94.064,40.333h-9.485c-0.656,0-1.187-0.346-1.187-1c0-0.655,0.531-1,1.187-1h9.485
		c0.656,0,1.186,0.345,1.186,1C95.251,39.987,94.72,40.333,94.064,40.333z"/>
</g>
<g>
	<path style="fill:#2C3E50;" d="M23.055,44.333h-8.893c-0.655,0-1.186-0.346-1.186-1c0-0.655,0.531-1,1.186-1h8.893
		c0.655,0,1.187,0.345,1.187,1C24.242,43.987,23.71,44.333,23.055,44.333z"/>
</g>
<g>
	<path style="fill:#2C3E50;" d="M47.116,44.333h-1.778c-0.655,0-1.186-0.345-1.186-1c0-0.655,0.531-1,1.186-1h1.778
		c0.655,0,1.186,0.345,1.186,1C48.302,43.988,47.771,44.333,47.116,44.333z"/>
</g>
<g>
	<path style="fill:#00A6AC;" d="M38.487,44.333h-1.778c-0.655,0-1.186-0.345-1.186-1c0-0.655,0.531-1,1.186-1h1.778
		c0.655,0,1.186,0.345,1.186,1C39.673,43.988,39.142,44.333,38.487,44.333z"/>
</g>
<g>
	<path style="fill:#BDC3C7;" d="M88.198,44.333h-8.893c-0.655,0-1.186-0.346-1.186-1c0-0.655,0.531-1,1.186-1h8.893
		c0.655,0,1.187,0.345,1.187,1C89.384,43.987,88.852,44.333,88.198,44.333z"/>
</g>
<g>
	<path style="fill:#00A6AC;" d="M85.588,44.333H74.323c-0.655,0-1.186-0.346-1.186-1c0-0.655,0.531-1,1.186-1h11.265
		c0.655,0,1.186,0.345,1.186,1C86.774,43.987,86.243,44.333,85.588,44.333z"/>
</g>
<g>
	<path style="fill:#2C3E50;" d="M66.116,40.333h-1.778c-0.655,0-1.186-0.345-1.186-1c0-0.655,0.531-1,1.186-1h1.778
		c0.655,0,1.186,0.345,1.186,1C67.302,39.988,66.771,40.333,66.116,40.333z"/>
</g>
<g>
	<path style="fill:#00A6AC;" d="M28.487,40.333h-1.778c-0.655,0-1.186-0.345-1.186-1c0-0.655,0.531-1,1.186-1h1.778
		c0.655,0,1.186,0.345,1.186,1C29.673,39.988,29.142,40.333,28.487,40.333z"/>
</g>
<g>
	<path style="fill:#00A6AC;" d="M52.561,40.333h-1.778c-0.655,0-1.186-0.345-1.186-1c0-0.655,0.531-1,1.186-1h1.778
		c0.655,0,1.186,0.345,1.186,1C53.747,39.988,53.216,40.333,52.561,40.333z"/>
</g>
</svg>
